<svg width="85" height="85" viewBox="0 0 85 85" fill="none" xmlns="http://www.w3.org/2000/svg">
<g clip-path="url(#clip0_3392_33700)">
<path d="M42.56 72.1292C36.7083 72.1292 30.9881 70.3915 26.1227 67.1359C21.2572 63.8803 17.4651 59.2529 15.2258 53.839C12.9865 48.4251 12.4005 42.4678 13.5421 36.7204C14.6837 30.973 17.5016 25.6937 21.6393 21.5501C25.777 17.4065 31.0488 14.5846 36.788 13.4414C42.5271 12.2982 48.4759 12.8849 53.8821 15.1274C59.2883 17.3699 63.9091 21.1675 67.1601 26.0399C70.411 30.9123 72.1463 36.6407 72.1463 42.5007C72.1377 50.356 69.0178 57.8872 63.4712 63.4418C57.9245 68.9963 50.4041 72.1207 42.56 72.1292Z" fill="white"/>
<path d="M42.5605 0C34.1668 0 25.9616 2.49258 18.9824 7.16254C12.0033 11.8325 6.56375 18.4701 3.35162 26.236C0.139482 34.0018 -0.700959 42.5471 0.936574 50.7913C2.57411 59.0355 6.61606 66.6083 12.5513 72.552C18.4866 78.4958 26.0485 82.5435 34.281 84.1834C42.5134 85.8232 51.0466 84.9816 58.8013 81.7649C66.5561 78.5482 73.1842 73.1008 77.8475 66.1117C82.5108 59.1227 84.9999 50.9057 84.9999 42.5C84.9999 31.2283 80.5286 20.4183 72.5697 12.448C64.6107 4.47767 53.8161 0 42.5605 0V0ZM42.5605 72.1286C36.7089 72.1286 30.9887 70.3909 26.1232 67.1353C21.2578 63.8796 17.4656 59.2523 15.2263 53.8384C12.987 48.4244 12.4011 42.4671 13.5427 36.7198C14.6843 30.9724 17.5021 25.6931 21.6398 21.5494C25.7775 17.4058 31.0493 14.584 36.7885 13.4407C42.5277 12.2975 48.4765 12.8843 53.8827 15.1268C59.2889 17.3693 63.9096 21.1669 67.1606 26.0393C70.4116 30.9116 72.1468 36.64 72.1468 42.5C72.1382 50.3554 69.0184 57.8865 63.4717 63.4411C57.9251 68.9957 50.4046 72.12 42.5605 72.1286Z" fill="#D8B243"/>
<path d="M42.4394 85C34.0457 85 25.8405 82.5074 18.8613 77.8375C11.8822 73.1675 6.44266 66.5299 3.23052 58.7641C0.0183884 50.9982 -0.822053 42.4529 0.81548 34.2087C2.45301 25.9645 6.49497 18.3917 12.4302 12.448C18.3655 6.50425 25.9274 2.45652 34.1599 0.816645C42.3923 -0.823227 50.9255 0.0184147 58.6802 3.23514C66.435 6.45186 73.0631 11.8992 77.7264 18.8883C82.3897 25.8774 84.8788 34.0943 84.8788 42.5C84.8659 53.7678 80.3905 64.5704 72.4344 72.5379C64.4782 80.5054 53.6911 84.9872 42.4394 85ZM42.4394 2.7524C34.5893 2.7524 26.9154 5.08356 20.3883 9.45108C13.8612 13.8186 8.77388 20.0263 5.76976 27.2893C2.76565 34.5522 1.97964 42.5441 3.51112 50.2544C5.04261 57.9647 8.8228 65.047 14.3737 70.6058C19.9245 76.1646 26.9968 79.9502 34.6961 81.4839C42.3954 83.0176 50.3759 82.2304 57.6284 79.222C64.881 76.2136 71.0799 71.1191 75.4412 64.5826C79.8025 58.0462 82.1303 50.3614 82.1303 42.5C82.1175 31.9622 77.9316 21.8597 70.4909 14.4084C63.0502 6.95706 52.9621 2.76525 42.4394 2.7524Z" fill="#D8B243"/>
<path d="M42.5616 13.9883C36.9306 13.9883 31.4261 15.6604 26.7441 18.7933C22.0621 21.9262 18.4129 26.3791 16.258 31.5889C14.1032 36.7986 13.5393 42.5313 14.6379 48.062C15.7364 53.5927 18.448 58.6729 22.4297 62.6603C26.4114 66.6477 31.4844 69.3632 37.0072 70.4633C42.53 71.5634 48.2545 70.9988 53.4569 68.8408C58.6592 66.6829 63.1058 63.0285 66.2342 58.3398C69.3626 53.6511 71.0323 48.1387 71.0323 42.4997C71.0238 34.9406 68.0215 27.6936 62.684 22.3485C57.3466 17.0035 50.1099 13.9969 42.5616 13.9883Z" fill="#A01E21"/>
<path opacity="0.4" d="M68.0253 29.6696C65.5079 24.6338 61.5601 20.4558 56.6782 17.6607C51.7962 14.8656 46.1981 13.5782 40.5876 13.9604C34.9771 14.3426 29.6046 16.3773 25.1456 19.8088C20.6867 23.2402 17.3402 27.9152 15.527 33.2459C13.7139 38.5767 13.5149 44.3253 14.9551 49.769C16.3953 55.2127 19.4104 60.1085 23.6214 63.8409C27.8324 67.5733 33.0513 69.9757 38.6219 70.7461C44.1925 71.5164 49.8662 70.6204 54.9297 68.1705H54.9863L55.3096 68.0167C58.6607 66.3369 61.6482 64.012 64.1012 61.175C66.5543 58.338 68.4248 55.0445 69.6058 51.4829C70.7867 47.9214 71.255 44.1616 70.9838 40.4187C70.7127 36.6758 69.7073 33.0231 68.0253 29.6696ZM29.8864 67.4986C27.9583 66.5295 26.1489 65.3397 24.4946 63.9529C25.484 64.1936 26.4999 64.3078 27.5179 64.2929C28.2336 64.2893 28.9486 64.2487 29.6601 64.1715C30.0966 64.5034 30.5412 64.8191 30.9939 65.1267C32.7357 66.2822 34.6149 67.215 36.5878 67.9034C31.7376 68.6724 29.9511 67.4986 29.9269 67.4743L29.8864 67.4986ZM31.2445 64.6896C30.9454 64.4872 30.6463 64.2767 30.3553 64.0662C32.085 63.8256 33.7951 63.4604 35.4723 62.9734C37.2641 64.4899 39.2585 65.7487 41.3976 66.7134C40.1444 67.1087 38.8707 67.4356 37.5821 67.6929C35.3343 66.9973 33.1974 65.9832 31.2364 64.6815L31.2445 64.6896ZM16.031 51.4619C15.1204 48.7658 14.6296 45.9453 14.5759 43.0996C15.5914 43.7082 16.7287 44.0841 17.9064 44.2005C18.4146 46.8851 19.248 49.4976 20.3881 51.98C17.2678 52.1339 16.0714 51.4619 16.0391 51.4458L16.031 51.4619ZM15.6268 34.9881C16.2095 35.4956 16.9194 35.8343 17.6801 35.9677C17.5831 36.6908 17.5184 37.4167 17.4861 38.1453C17.4032 40.0086 17.517 41.8754 17.8256 43.7148C16.6624 43.6025 15.5482 43.1896 14.5921 42.5167C14.6034 39.9761 14.9597 37.4488 15.6511 35.0043L15.6268 34.9881ZM53.4746 20.2386C52.8765 19.8608 52.2648 19.51 51.6396 19.1862C52.285 18.3922 52.756 17.4709 53.022 16.4824C55.3931 17.424 57.6236 18.6879 59.6506 20.2386C59.3073 21.5223 58.7078 22.7229 57.8883 23.7681C56.5543 22.4292 55.0737 21.2452 53.4746 20.2386ZM53.216 20.6515C54.7974 21.6585 56.2592 22.8427 57.5731 24.181C56.1083 26.0894 54.4233 27.8176 52.5531 29.3296C51.0957 27.1981 49.4066 25.2352 47.517 23.4767C48.4778 22.6909 49.3877 21.8445 50.2412 20.9429C50.6858 20.4653 51.0495 20.0119 51.3891 19.5991C52.0304 19.9283 52.6555 20.2845 53.2645 20.6677L53.216 20.6515ZM59.9416 57.7034C58.8745 58.4077 57.7024 59.1362 56.409 59.881C56.2081 57.9176 55.8485 55.9738 55.3339 54.0686C57.1931 52.9758 58.8341 51.9234 60.2811 50.9277C60.4708 53.1913 60.3566 55.4701 59.9416 57.7034ZM26.6772 50.4743C25.6266 48.3608 24.7349 46.1717 24.0096 43.9253C26.5942 43.4232 29.129 42.6917 31.584 41.7396C32.3924 43.6419 33.2008 45.4391 34.0091 47.0581L34.5911 48.2077C32.0703 49.2534 29.4865 50.1402 26.8551 50.8629L26.661 50.4743H26.6772ZM23.7348 25.9781L23.8075 25.8C24.9561 25.776 26.0958 25.5935 27.1946 25.2577C27.3669 28.0846 27.8633 30.8824 28.6739 33.5958C26.641 34.4026 24.5348 35.0099 22.3848 35.4091C22.1827 32.2039 22.6394 28.9914 23.7267 25.97L23.7348 25.9781ZM56.0048 62.01C56.0048 65.2481 55.1965 66.8672 54.857 67.4986C54.5336 66.9886 53.7333 65.6772 52.1408 62.7386C53.5151 62.0424 54.7896 61.3678 55.9644 60.7148C55.9644 61.16 56.0048 61.5972 56.0048 62.0343V62.01ZM27.6553 24.1324C27.6553 20.781 28.4637 19.0405 28.876 18.4091C29.1751 18.8867 29.8864 20.1091 31.4466 23.0477C30.2251 23.6575 28.9607 24.177 27.6634 24.6019C27.6634 24.44 27.6634 24.2781 27.6634 24.1243L27.6553 24.1324ZM35.9977 30.8191C37.8004 29.8962 39.8375 28.7791 41.8665 27.5162C43.4175 29.5705 44.8428 31.717 46.1347 33.9438C44.1946 35.15 41.9796 36.3724 39.4494 37.7C38.148 35.0772 37.0243 32.8024 36.0058 30.8191H35.9977ZM35.7875 30.3819C34.2435 27.33 33.0472 25.0148 32.1175 23.2581C33.3708 22.6278 34.588 21.9278 35.7633 21.1615C37.9417 22.8964 39.8944 24.8981 41.5755 27.1196C39.9183 28.1477 38.0025 29.2405 35.7875 30.3577V30.3819ZM31.8912 22.8048C30.4119 20.0038 29.6763 18.7572 29.3448 18.1905C31.364 18.4743 33.2734 19.2838 34.8822 20.5381L35.3348 20.8619C34.2182 21.5827 33.0632 22.2421 31.875 22.8372L31.8912 22.8048ZM31.6487 23.4767C32.5702 25.2334 33.7747 27.5243 35.3187 30.6086L35.2378 30.6491C32.9421 31.8067 30.9131 32.7134 29.1104 33.4177C28.307 30.7097 27.8241 27.9166 27.6715 25.0958C29.0362 24.6575 30.3657 24.1163 31.6487 23.4767ZM35.4561 31.0862L35.545 31.0458C36.5474 33.021 37.6872 35.3038 38.9887 37.9267C36.8708 38.9953 34.4133 40.1367 31.8427 41.1648C30.848 38.8047 29.9844 36.3914 29.2559 33.9358C31.0828 33.2153 33.1442 32.3167 35.4642 31.1267L35.4561 31.0862ZM39.215 38.4124L41.244 42.5086L42.3434 44.7348C39.6758 46.0705 37.2507 47.1634 35.0681 48.0781L34.4699 46.8962C33.5484 45.0262 32.7481 43.2696 32.0448 41.6262C34.6235 40.6305 37.0971 39.4891 39.2231 38.3881L39.215 38.4124ZM42.5697 45.1396C43.6934 47.4062 44.72 49.4543 45.6496 51.3081C43.5802 52.3524 41.2117 53.4615 38.7138 54.4896C37.5983 52.7329 36.4585 50.7415 35.2944 48.491C37.4851 47.5762 39.9102 46.4753 42.5697 45.1396ZM45.876 51.7372C46.9107 53.7853 47.8322 55.5824 48.6487 57.161C46.4661 58.2215 44.4694 59.0958 42.6344 59.9053C41.3165 58.3076 40.0964 56.6315 38.9806 54.8862C41.0743 54.02 43.362 52.9677 45.8679 51.7129L45.876 51.7372ZM48.8589 57.5658C49.8936 59.5734 50.7585 61.2005 51.478 62.5281C49.9852 63.2783 48.584 63.9367 47.2745 64.5034C45.7038 63.2452 44.2606 61.8353 42.9659 60.2939C44.7766 59.5329 46.7328 58.6262 48.8589 57.5658ZM51.7043 62.9572C53.2483 65.8067 54.0486 67.1343 54.4043 67.701C53.4827 67.701 51.0495 67.3529 47.711 64.8434C48.9613 64.3037 50.2924 63.675 51.7043 62.9572ZM51.9064 62.3096C51.195 60.9819 50.2897 59.3548 49.2873 57.3472C51.3406 56.311 53.1917 55.2991 54.8731 54.3277C55.3778 56.2383 55.7212 58.188 55.8998 60.1562C54.671 60.8578 53.3238 61.5756 51.8579 62.3096H51.9064ZM49.0205 56.9181C48.2122 55.3396 47.2825 53.5424 46.2478 51.4943C48.2526 50.4824 50.4837 49.2762 52.7148 47.9243C53.4504 49.8672 54.1213 51.8586 54.6549 53.8419C52.9492 54.8377 51.0657 55.8658 48.9963 56.9181H49.0205ZM46.0053 51.0572C45.0757 49.2115 44.0491 47.1634 42.9254 44.8967C45.496 43.5934 47.7756 42.3467 49.8289 41.1567C50.7504 43.1077 51.6962 45.2448 52.5531 47.471C50.613 48.6286 48.4385 49.8267 46.0053 51.0653V51.0572ZM42.7153 44.4677L41.6159 42.2415L39.6515 38.1372C41.721 37.0848 44.041 35.8139 46.361 34.3648C47.3957 36.1619 48.3253 37.9267 49.1256 39.5539L49.6915 40.7115C47.6544 41.9015 45.3667 43.14 42.788 44.4596L42.7153 44.4677ZM49.5621 39.3353C48.7538 37.7162 47.8161 35.9191 46.7733 34.1058C48.7501 32.8689 50.653 31.5174 52.4723 30.0581C53.6758 31.8582 54.7561 33.7379 55.7057 35.6843L56.1261 36.5505C54.4285 37.7648 52.4319 39.0762 50.0957 40.4605L49.546 39.3353H49.5621ZM46.5146 33.6686C45.2217 31.4424 43.7964 29.296 42.2464 27.241C43.9291 26.1816 45.5486 25.0247 47.0966 23.7762C48.9983 25.533 50.6958 27.4991 52.157 29.6372C50.3534 31.0985 48.4638 32.4502 46.4984 33.6848L46.5146 33.6686ZM41.9716 26.8767C40.2909 24.6505 38.3444 22.6387 36.1756 20.8862C37.1139 20.2548 38.0079 19.5597 38.8513 18.8058C41.778 19.815 44.4721 21.4035 46.7733 23.4767C45.2401 24.7051 43.6368 25.843 41.9716 26.8848V26.8767ZM35.7633 20.5786L35.1004 20.101C33.7116 19.0971 32.1494 18.3588 30.4927 17.9234C33.0774 17.6188 35.6969 17.8503 38.1884 18.6034H38.2935C37.4899 19.3049 36.642 19.9538 35.7552 20.5462L35.7633 20.5786ZM27.9706 19.1053C27.405 20.6804 27.1311 22.3456 27.1622 24.0191C27.1622 24.2512 27.1622 24.4886 27.1622 24.7315C26.1338 25.0486 25.0687 25.2309 23.9934 25.2738C24.9195 22.9876 26.2689 20.8974 27.9706 19.1134V19.1053ZM28.779 34.0572C29.5242 36.5125 30.4012 38.9256 31.4062 41.2862C28.9646 42.2315 26.4431 42.9549 23.8722 43.4477C23.1045 40.9958 22.6164 38.4647 22.4171 35.9029C24.6032 35.4968 26.7447 34.8787 28.8113 34.0572H28.779ZM34.8337 48.6286C35.828 50.5472 36.9758 52.6034 38.2531 54.6272C35.8057 55.634 33.2975 56.4857 30.7433 57.1772C29.3754 55.3218 28.1589 53.3591 27.1057 51.3081C29.7338 50.5737 32.3146 49.6788 34.8337 48.6286ZM38.5279 55.0481C39.6392 56.8008 40.8511 58.4874 42.1575 60.0996C40.0037 60.9967 37.8015 61.7724 35.5612 62.4229C33.9017 60.9823 32.3955 59.3736 31.0667 57.6224C33.6047 56.9202 36.0966 56.0604 38.5279 55.0481ZM42.497 60.4719C43.7751 62.0341 45.1988 63.4707 46.749 64.7624C45.0514 65.4829 43.5155 66.0658 42.109 66.5272C39.9187 65.6072 37.8758 64.3688 36.0462 62.8519C38.2414 62.1927 40.4001 61.4171 42.5132 60.5286L42.497 60.4719ZM47.2017 65.1105C47.6544 65.4586 48.1152 65.7905 48.584 66.0981C49.9369 66.9946 51.4404 67.6391 53.022 68.0005C50.2851 68.3312 47.5103 68.1305 44.8494 67.4096C44.1542 67.2234 43.4832 67.0048 42.8284 66.7538C44.1542 66.2924 45.6092 65.7339 47.1936 65.0539L47.2017 65.1105ZM56.4979 62.0829C56.4979 61.5324 56.498 60.9739 56.4333 60.4072C57.6458 59.711 58.7614 59.031 59.7799 58.3753C59.656 58.915 59.5078 59.4708 59.3353 60.0429C58.612 62.4123 57.4249 64.6138 55.8432 66.5191C56.3153 65.0807 56.5394 63.5723 56.506 62.0586L56.4979 62.0829ZM55.1803 53.5829C54.6387 51.5996 53.9678 49.6081 53.2241 47.6653C55.148 46.5077 57.0961 45.2367 58.9473 43.8929C59.5661 46.0081 59.9882 48.1761 60.2084 50.3691C58.7452 51.3972 57.08 52.4739 55.1803 53.6072V53.5829ZM53.0543 47.2362C52.1893 45.0181 51.2516 42.881 50.322 40.93C52.6582 39.5458 54.6549 38.2424 56.3605 37.0362C57.3155 39.1065 58.1258 41.2407 58.7856 43.4234C57.1689 44.6296 55.2531 45.9005 53.0381 47.2362H53.0543ZM56.7485 36.7124C58.9323 35.1851 60.9749 33.4647 62.8517 31.5719C62.973 31.8067 63.1023 32.0496 63.2155 32.2924C64.0701 34.0144 64.7812 35.8041 65.3415 37.6434C63.4795 39.666 61.4245 41.5015 59.206 43.1239C58.5434 40.9474 57.7331 38.8188 56.7809 36.7529L56.7485 36.7124ZM56.5626 36.2915L56.1746 35.4819C55.2036 33.5038 54.0989 31.5943 52.8684 29.7667C54.3976 28.5195 55.8149 27.1408 57.1042 25.6462C57.4195 25.2738 57.7024 24.9177 57.9611 24.5777C59.792 26.521 61.3577 28.6986 62.6173 31.0539C60.7585 32.9674 58.7292 34.707 56.5545 36.251L56.5626 36.2915ZM49.7966 20.6838C48.9664 21.5473 48.0836 22.3584 47.1532 23.1124C44.8546 21.0345 42.1714 19.4283 39.2554 18.3848C39.7936 17.8807 40.296 17.3398 40.759 16.7658C41.1632 16.7658 41.5674 16.8224 41.9877 16.8629C45.0918 17.1576 48.1189 18.0018 50.9283 19.3562C50.613 19.7529 50.2493 20.1658 49.8046 20.6596L49.7966 20.6838ZM38.7138 18.231L38.3258 18.1096C36.488 17.5699 34.5824 17.2973 32.6672 17.3C35.1146 16.8568 37.6027 16.6804 40.0881 16.7738C39.6453 17.2996 39.1701 17.797 38.6653 18.2634L38.7138 18.231ZM30.4765 17.2677C33.9505 15.5849 37.7353 14.6421 41.5916 14.4991C41.3156 15.1362 40.9626 15.737 40.5407 16.2881C37.1672 16.1309 33.7886 16.4607 30.5089 17.2677H30.4765ZM23.5165 25.29C23.1489 25.2764 22.7835 25.2276 22.4252 25.1443C23.4456 23.6415 24.601 22.2352 25.8769 20.9429C24.9197 22.2953 24.1272 23.7574 23.5165 25.2981V25.29ZM23.3306 25.7838C22.2047 28.8916 21.734 32.1992 21.9483 35.4981C20.7323 35.7036 19.4926 35.7254 18.2702 35.5629C18.7267 32.6531 19.6927 29.8468 21.1237 27.2734C21.4471 26.6824 21.7866 26.1238 22.1342 25.5896C22.5252 25.6957 22.9261 25.7608 23.3306 25.7838ZM19.6929 36.17C20.448 36.1653 21.2018 36.1058 21.9483 35.9919C22.1489 38.5529 22.6342 41.0835 23.3952 43.5367C22.0925 43.7593 20.7718 43.8596 19.4504 43.8362C19.0462 43.8362 18.642 43.8362 18.3348 43.7634C18.0173 41.9223 17.8981 40.0523 17.9792 38.1858C18.0115 37.4734 18.0762 36.7637 18.1732 36.0567C18.6788 36.1339 19.1896 36.1718 19.701 36.17H19.6929ZM18.4319 44.2653C18.7229 44.2653 19.03 44.3139 19.3615 44.3219H19.9273C21.1464 44.3154 22.363 44.2099 23.565 44.0062C24.2988 46.2974 25.204 48.5299 26.273 50.6848L26.3943 51.0005C24.5985 51.4775 22.7647 51.7971 20.9135 51.9558C19.7753 49.5057 18.9392 46.9259 18.4238 44.2734L18.4319 44.2653ZM26.6368 51.47C27.681 53.5217 28.8866 55.487 30.2421 57.3472C28.388 57.8302 26.4941 58.1445 24.5835 58.2862C23.3709 56.6329 22.3077 54.8747 21.4066 53.0324L21.1399 52.4496C22.9916 52.2733 24.8251 51.9402 26.6206 51.4539L26.6368 51.47ZM30.5493 57.76C31.8645 59.5271 33.357 61.1547 35.0034 62.6172C33.2817 63.0997 31.5249 63.4462 29.749 63.6534C27.9499 62.2441 26.3365 60.612 24.9473 58.7962C26.8391 58.6305 28.7133 58.3028 30.5493 57.8167V57.76ZM42.1009 67.0129C44.6492 68.041 47.3649 68.5899 50.1118 68.6319C47.479 68.9662 44.8146 68.9662 42.1817 68.6319C40.9835 68.5002 39.7953 68.2892 38.6249 68.0005C39.6758 67.7577 40.8318 67.4419 42.109 67.021L42.1009 67.0129ZM59.7799 60.2372C60.0068 59.5081 60.1956 58.7678 60.3458 58.0191C61.9057 56.9962 63.4062 55.8853 64.8403 54.6919C64.3468 55.9312 63.7632 57.1325 63.0942 58.2862C61.465 61.0811 59.4207 63.6114 57.0315 65.7905C58.2349 64.0859 59.1599 62.2004 59.7718 60.2048L59.7799 60.2372ZM60.467 57.2986C60.8347 55.0786 60.9162 52.8204 60.7095 50.5796C62.7881 49.1538 64.7481 47.562 66.5702 45.8196C66.5702 46.2729 66.5702 46.7262 66.5217 47.1715C66.3754 49.3963 65.9295 51.5911 65.196 53.6962C63.7003 55.0095 62.1206 56.2236 60.467 57.331V57.2986ZM60.661 50.0453C60.4229 47.8517 59.9873 45.6842 59.3596 43.5691C61.5719 41.9631 63.6288 40.1526 65.5032 38.1615C66.1465 40.4116 66.4997 42.7349 66.5541 45.0748C64.7329 46.8906 62.7585 48.5455 60.653 50.021L60.661 50.0453ZM65.8912 37.7324C67.1759 36.3859 68.2058 34.817 68.9307 33.1019C69.6851 35.2225 70.1791 37.4271 70.4019 39.6672C70.3211 39.9586 69.7229 41.7719 67.0391 44.6296C66.9422 42.3084 66.5593 40.0081 65.8993 37.781L65.8912 37.7324ZM68.769 32.681H68.5911C68.5911 32.681 68.1627 34.4134 65.7214 37.2548C65.1662 35.49 64.4743 33.7713 63.652 32.1143C63.5065 31.8148 63.3529 31.5234 63.2074 31.24C64.363 30.0816 65.3094 28.7313 66.0044 27.2491C67.1192 28.9674 68.0435 30.8024 68.7609 32.7215L68.769 32.681ZM65.7134 26.7148H65.6649C65.6649 26.7148 65.2364 28.1881 62.9568 30.6896C61.6801 28.316 60.0954 26.1221 58.244 24.1648C59.0621 23.0961 59.6835 21.8899 60.079 20.6029C62.2632 22.3449 64.171 24.4083 65.7376 26.7229L65.7134 26.7148ZM42.594 14.4748C45.5743 14.4765 48.5351 14.9547 51.3648 15.8915C51.839 16.048 52.3079 16.218 52.7714 16.4015L52.7229 16.5472C52.6823 16.5338 52.6464 16.5092 52.6192 16.4763C52.5921 16.4433 52.5747 16.4034 52.5693 16.361C52.328 17.3305 51.8659 18.231 51.2193 18.9919C48.3345 17.5874 45.2215 16.7127 42.0281 16.4096L41.0985 16.3286C41.5367 15.7665 41.8933 15.1451 42.1575 14.4829H42.6344L42.594 14.4748ZM26.6125 19.5181C24.8333 21.1491 23.254 22.9861 21.9078 24.9905C21.6158 24.8913 21.3425 24.7435 21.0995 24.5534C22.7004 22.6351 24.5521 20.9415 26.6045 19.5181H26.6125ZM20.8004 24.9338C21.0433 25.1364 21.3159 25.3003 21.6087 25.4196C21.2854 25.9296 20.962 26.4558 20.6549 27.0386C19.1928 29.6617 18.2049 32.5228 17.7367 35.49C16.9825 35.392 16.2869 35.0308 15.7723 34.47C15.8424 34.238 15.9151 34.0059 15.9906 33.7739C17.0494 30.5612 18.6788 27.5665 20.8004 24.9338ZM16.2412 52.061C17.2844 52.4001 18.3783 52.5562 19.4746 52.5224C19.8196 52.5224 20.1914 52.5224 20.5902 52.5224C20.7034 52.7734 20.8246 53.0162 20.9459 53.2672C21.8256 55.0228 22.8504 56.7017 24.0096 58.2862C20.6953 58.4077 19.1594 57.6467 18.8765 57.4767C18.4076 56.7239 17.963 55.9467 17.5588 55.1453C17.0597 54.1467 16.6197 53.1195 16.2412 52.0691V52.061ZM19.3776 58.2458C20.6463 58.666 21.9787 58.8605 23.3144 58.8205C23.6458 58.8205 24.0015 58.8205 24.3814 58.8205C25.7391 60.6383 27.3137 62.2831 29.07 63.7181C25.1736 64.0258 23.5973 63.1353 23.4114 63.0381C21.8886 61.6068 20.5327 60.0072 19.3696 58.27L19.3776 58.2458ZM42.5455 70.5262C39.0523 70.5251 35.5899 69.8717 32.3358 68.5996C32.6996 68.5996 33.0957 68.6562 33.5484 68.6562C34.9065 68.64 36.2599 68.4936 37.5902 68.2191C39.0827 68.6689 40.6106 68.9911 42.1575 69.1824C43.4283 69.3442 44.7081 69.4253 45.9892 69.4253C48.0147 69.423 50.0359 69.236 52.0277 68.8667C48.9906 69.9703 45.7844 70.5346 42.5536 70.5343L42.5455 70.5262ZM69.1085 51.2758C67.0278 57.5825 62.7683 62.9389 57.0961 66.3815C59.627 64.1184 61.7874 61.4714 63.4984 58.5372C64.3338 57.1009 65.0372 55.5917 65.6002 54.0281C67.1527 52.714 68.5133 51.1879 69.642 49.4948C69.4884 50.0858 69.3106 50.6848 69.1166 51.2677L69.1085 51.2758ZM70.0866 47.5034C70.0866 47.5034 69.5531 49.6486 65.9639 53.0324C66.5492 51.144 66.9101 49.1931 67.0391 47.22C67.0822 46.594 67.0984 45.9653 67.0876 45.3339C68.4699 43.9972 69.6298 42.4476 70.5231 40.7439C70.6593 43.0085 70.5182 45.2812 70.1028 47.5115" fill="#D8B243"/>
<path d="M41.4306 43.9001C42.2931 42.9118 42.8933 41.7219 43.1758 40.4401C43.4584 39.1584 43.4142 37.826 43.0474 36.5659C42.6077 35.0548 41.9369 33.6212 41.0588 32.3159L39.24 29.434C38.8643 28.8563 38.5294 28.2531 38.2376 27.6287C38.0177 27.1484 37.8392 26.65 37.7041 26.1392C37.393 25.1458 37.4388 24.0747 37.8334 23.1116C38.0249 22.686 38.3132 22.3113 38.6754 22.0174C39.0376 21.7236 39.4635 21.5189 39.919 21.4197C40.3317 21.2914 40.7668 21.2518 41.1958 21.3034C41.6248 21.355 42.0381 21.4967 42.4088 21.7192C43.164 22.2236 43.6899 23.0062 43.8719 23.8968C44.1247 24.8831 44.0097 25.9279 43.5486 26.8354C43.3801 27.2613 43.1184 27.6438 42.7826 27.9549C42.4468 28.2659 42.0456 28.4975 41.6085 28.6325C41.0588 28.7782 40.8001 28.9806 40.8971 29.2559C40.9941 29.5311 41.269 29.5473 41.8106 29.4097C43.2367 29.0604 44.492 28.2138 45.3512 27.0216C45.7511 26.5273 46.0321 25.9474 46.1722 25.327C46.3124 24.7065 46.3081 24.062 46.1596 23.4435C46.016 22.8489 45.7297 22.2985 45.3253 21.8399C44.921 21.3814 44.411 21.0287 43.8396 20.8125C42.4268 20.2985 40.8843 20.2644 39.4501 20.7154C37.3104 21.1992 35.408 22.4197 34.0745 24.164C33.4753 24.8753 33.0518 25.7179 32.8383 26.6237C32.6248 27.5294 32.6274 28.4727 32.8458 29.3773C33.0491 30.1104 33.3197 30.8231 33.6541 31.5063L36.0388 35.5135C36.9748 36.9206 37.7221 38.4448 38.2618 40.0468C38.5041 40.8427 38.5739 41.6812 38.4666 42.5063C38.3592 43.3313 38.0772 44.124 37.6394 44.8311C36.7143 46.2641 35.2618 47.2736 33.5975 47.6401C32.7569 47.9054 31.866 47.9704 30.9959 47.8298C30.1257 47.6893 29.3004 47.3471 28.5857 46.8306C27.0289 45.6256 25.9537 43.9029 25.5543 41.9735C25.0718 40.2827 25.2272 38.4732 25.9908 36.8897C26.3058 36.1792 26.778 35.5497 27.3719 35.049C27.9657 34.5483 28.6655 34.1895 29.4183 33.9997C29.8925 33.8621 30.3918 33.835 30.878 33.9206C31.3642 34.0062 31.8244 34.2022 32.2233 34.4935C33.0749 35.1119 33.6748 36.0174 33.9128 37.0435C34.069 37.7536 34.0909 38.4867 33.9775 39.2049C33.9462 39.8543 33.6954 40.4738 33.2661 40.9616C33.1351 41.0406 33.0253 41.1505 32.9464 41.2817C32.8675 41.4129 32.8218 41.5615 32.8134 41.7144L33.1853 42.0059C33.4612 41.8633 33.6952 41.6513 33.8643 41.3906L34.5433 40.3868C34.9865 39.7724 35.28 39.0627 35.4002 38.3144C35.5202 37.6234 35.4954 36.9149 35.3275 36.234C35.1971 35.6384 34.9377 35.0789 34.5675 34.5949C34.1973 34.1108 33.7254 33.7142 33.1853 33.433C32.0276 32.8669 30.6983 32.7627 29.4668 33.1416C28.2933 33.4279 27.1886 33.9455 26.217 34.6641C25.2455 35.3827 24.4266 36.2879 23.8082 37.3268C23.1679 38.3206 22.7435 39.4381 22.5625 40.6068C22.3814 41.7755 22.4478 42.9693 22.7573 44.1106C22.9459 45.0742 23.358 45.98 23.9604 46.7548C24.5628 47.5296 25.3386 48.1517 26.2252 48.5711C27.9713 49.359 30.1808 49.4049 32.8538 48.7087C36.7987 47.6563 39.6576 46.0535 41.4306 43.9001Z" fill="#7F1518"/>
<path opacity="0.6" d="M41.4306 43.9001C42.2931 42.9118 42.8933 41.7219 43.1758 40.4401C43.4584 39.1584 43.4142 37.826 43.0474 36.5659C42.6077 35.0548 41.9369 33.6212 41.0588 32.3159L39.24 29.434C38.8643 28.8563 38.5294 28.2531 38.2376 27.6287C38.0177 27.1484 37.8392 26.65 37.7041 26.1392C37.393 25.1458 37.4388 24.0747 37.8334 23.1116C38.0249 22.686 38.3132 22.3113 38.6754 22.0174C39.0376 21.7236 39.4635 21.5189 39.919 21.4197C40.3317 21.2914 40.7668 21.2518 41.1958 21.3034C41.6248 21.355 42.0381 21.4967 42.4088 21.7192C43.164 22.2236 43.6899 23.0062 43.8719 23.8968C44.1247 24.8831 44.0097 25.9279 43.5486 26.8354C43.3801 27.2613 43.1184 27.6438 42.7826 27.9549C42.4468 28.2659 42.0456 28.4975 41.6085 28.6325C41.0588 28.7782 40.8001 28.9806 40.8971 29.2559C40.9941 29.5311 41.269 29.5473 41.8106 29.4097C43.2367 29.0604 44.492 28.2138 45.3512 27.0216C45.7511 26.5273 46.0321 25.9474 46.1722 25.327C46.3124 24.7065 46.3081 24.062 46.1596 23.4435C46.016 22.8489 45.7297 22.2985 45.3253 21.8399C44.921 21.3814 44.411 21.0287 43.8396 20.8125C42.4268 20.2985 40.8843 20.2644 39.4501 20.7154C37.3104 21.1992 35.408 22.4197 34.0745 24.164C33.4753 24.8753 33.0518 25.7179 32.8383 26.6237C32.6248 27.5294 32.6274 28.4727 32.8458 29.3773C33.0491 30.1104 33.3197 30.8231 33.6541 31.5063L36.0388 35.5135C36.9748 36.9206 37.7221 38.4448 38.2618 40.0468C38.5041 40.8427 38.5739 41.6812 38.4666 42.5063C38.3592 43.3313 38.0772 44.124 37.6394 44.8311C36.7143 46.2641 35.2618 47.2736 33.5975 47.6401C32.7569 47.9054 31.866 47.9704 30.9959 47.8298C30.1257 47.6893 29.3004 47.3471 28.5857 46.8306C27.0289 45.6256 25.9537 43.9029 25.5543 41.9735C25.0718 40.2827 25.2272 38.4732 25.9908 36.8897C26.3058 36.1792 26.778 35.5497 27.3719 35.049C27.9657 34.5483 28.6655 34.1895 29.4183 33.9997C29.8925 33.8621 30.3918 33.835 30.878 33.9206C31.3642 34.0062 31.8244 34.2022 32.2233 34.4935C33.0749 35.1119 33.6748 36.0174 33.9128 37.0435C34.069 37.7536 34.0909 38.4867 33.9775 39.2049C33.9462 39.8543 33.6954 40.4738 33.2661 40.9616C33.1351 41.0406 33.0253 41.1505 32.9464 41.2817C32.8675 41.4129 32.8218 41.5615 32.8134 41.7144L33.1853 42.0059C33.4612 41.8633 33.6952 41.6513 33.8643 41.3906L34.5433 40.3868C34.9865 39.7724 35.28 39.0627 35.4002 38.3144C35.5202 37.6234 35.4954 36.9149 35.3275 36.234C35.1971 35.6384 34.9377 35.0789 34.5675 34.5949C34.1973 34.1108 33.7254 33.7142 33.1853 33.433C32.0276 32.8669 30.6983 32.7627 29.4668 33.1416C28.2933 33.4279 27.1886 33.9455 26.217 34.6641C25.2455 35.3827 24.4266 36.2879 23.8082 37.3268C23.1679 38.3206 22.7435 39.4381 22.5625 40.6068C22.3814 41.7755 22.4478 42.9693 22.7573 44.1106C22.9459 45.0742 23.358 45.98 23.9604 46.7548C24.5628 47.5296 25.3386 48.1517 26.2252 48.5711C27.9713 49.359 30.1808 49.4049 32.8538 48.7087C36.7987 47.6563 39.6576 46.0535 41.4306 43.9001Z" fill="#380D11"/>
<path opacity="0.6" d="M63.7241 32.3153C63.4654 31.3196 62.7217 30.1377 60.62 30.1377C59.868 30.1543 59.1211 30.2658 58.3969 30.4696C57.4293 30.7074 56.4765 31.0021 55.5434 31.352L53.2153 32.542C52.2453 33.1248 51.4126 33.6672 50.7417 34.161C49.9382 34.7764 49.1716 35.4387 48.4459 36.1444L46.1178 38.5729C45.4253 39.3198 44.7801 40.1093 44.1858 40.9367C43.0097 42.8455 41.9305 44.8124 40.9523 46.8301C40.8067 47.2807 40.6905 47.7404 40.6047 48.2063C40.4835 48.8134 40.3784 49.4367 40.2976 50.052C40.2092 50.682 40.1821 51.3191 40.2167 51.9544C40.2484 52.5445 40.3378 53.1302 40.4835 53.7029C40.811 55.1341 41.6804 56.382 42.9086 57.1839C43.6788 57.6426 44.5589 57.8832 45.455 57.8801C45.9707 57.8776 46.4841 57.8096 46.9828 57.6777C48.0639 57.3622 49.0933 56.8904 50.0384 56.2772C50.9955 55.6314 51.8627 54.861 52.6171 53.9863L53.1668 53.2658L52.7464 54.3991L51.4692 57.8558C50.8151 59.446 49.968 60.9495 48.9471 62.3325C48.8612 62.4431 48.8055 62.5742 48.7854 62.7129C48.1858 63.387 47.4104 63.8804 46.5463 64.1377C46.2539 64.219 45.9523 64.2626 45.649 64.2672C45.3512 64.2706 45.0562 64.2099 44.784 64.0891C44.587 64.0109 44.4112 63.8873 44.2708 63.7284C44.1303 63.5695 44.0292 63.3797 43.9756 63.1744C43.8951 62.9052 43.9211 62.6153 44.0484 62.3648C44.1013 62.2565 44.176 62.1603 44.2678 62.0823C44.3596 62.0043 44.4666 61.9461 44.5819 61.9115L44.8487 61.8386L45.1882 61.7496L45.5439 61.6606L45.455 61.3044V61.2315C45.3734 60.9701 45.2158 60.7389 45.0023 60.5677L44.4768 60.2196L44.4041 60.171H44.299C44.1133 60.159 43.9269 60.159 43.7412 60.171C43.5426 60.1675 43.3443 60.1893 43.1511 60.2358C42.3646 60.4481 41.6917 60.9592 41.2757 61.6606C41.0527 61.9748 40.8986 62.3327 40.8233 62.7107C40.7481 63.0888 40.7535 63.4785 40.8392 63.8544C40.9508 64.3412 41.188 64.7903 41.5269 65.1568C41.8659 65.5232 42.2949 65.7943 42.7712 65.9429C43.2585 66.105 43.7694 66.1843 44.2828 66.1777C44.9878 66.1656 45.6885 66.0649 46.3684 65.8782C47.3689 65.6001 48.3364 65.2147 49.2543 64.7286C50.3824 64.1443 51.4635 63.4731 52.4878 62.721C53.8195 61.7044 54.9491 60.4468 55.8182 59.0134C56.5377 57.8315 57.1521 56.7306 57.6371 55.7348C57.8795 55.345 58.0955 54.9393 58.2838 54.5206C58.9589 52.9348 59.5471 51.3133 60.046 49.6634C60.7956 47.1058 61.4161 44.5121 61.9053 41.892L62.0508 41.1472L61.3798 41.4872C60.911 41.722 60.4583 41.9648 60.0137 42.1996C59.7145 42.3715 59.3973 42.5099 59.0679 42.6125C58.8788 42.6762 58.695 42.7547 58.5182 42.8472L58.0089 42.9039H57.8877L56.9661 43.1467L51.4207 45.2191L51.2025 45.3325V45.4296C51.1154 45.4682 51.0398 45.5287 50.9831 45.6054C50.9264 45.682 50.8906 45.7721 50.8791 45.8667C50.8577 45.9548 50.8567 46.0465 50.8764 46.1349C50.896 46.2234 50.9356 46.3061 50.9923 46.3767C51.2025 46.6358 51.6471 46.8706 53.4982 46.8706C53.9428 46.8706 54.3713 46.8706 54.7189 46.8706H54.9048C54.7523 47.3515 54.5686 47.822 54.3551 48.2791L53.6922 49.5906L52.9485 50.6834C52.4802 51.1685 51.9597 51.6002 51.3965 51.9706C50.8821 52.3325 50.3111 52.6061 49.707 52.7801C49.4224 52.8579 49.1289 52.8987 48.8339 52.9015C48.3307 52.9002 47.8359 52.7722 47.395 52.5291C47.0776 52.3768 46.796 52.1588 46.5689 51.8894C46.3418 51.6201 46.1743 51.3056 46.0774 50.9667L45.9157 49.1858V47.4777L46.0855 46.3201L46.5382 44.8467L46.9343 43.8672L47.007 43.7134L47.581 42.0944L48.6238 40.0867L50.7174 37.0186C51.4365 35.9867 52.2871 35.0533 53.2476 34.242C53.8421 33.7483 54.4967 33.3321 55.1958 33.0034C55.7058 32.7333 56.2457 32.5241 56.8045 32.3801C57.2073 32.2665 57.6228 32.2039 58.0413 32.1939C58.3678 32.1452 58.7006 32.2227 58.9723 32.4106C59.244 32.5985 59.4342 32.8827 59.5044 33.2058C59.57 33.5781 59.5478 33.9607 59.4397 34.3229C59.148 35.1554 58.7996 35.9668 58.3969 36.7515C58.3394 36.8497 58.309 36.9615 58.309 37.0753C58.309 37.1892 58.3394 37.3009 58.3969 37.3991C58.4907 37.5207 58.6148 37.6154 58.7567 37.6736C58.8986 37.7319 59.0533 37.7517 59.2053 37.731C60.2643 37.731 62.3418 36.9215 62.9481 35.9015C63.665 34.8537 63.9436 33.5663 63.7241 32.3153Z" fill="#380D11"/>
<path d="M62.8987 31.8455C62.4353 30.0592 60.8185 29.5195 58.0485 30.2265C57.0944 30.4621 56.1551 30.754 55.2354 31.1008L52.9073 32.2908C51.9265 32.8736 51.1181 33.4133 50.4822 33.9098C49.6925 34.5177 48.9394 35.1719 48.2268 35.8689L45.9149 38.2974C45.2335 39.0339 44.599 39.8126 44.0152 40.6289C43.4655 41.3736 41.0647 45.745 40.7818 46.4412C40.635 46.873 40.5162 47.3137 40.4261 47.7608C40.3129 48.3436 40.2078 48.9508 40.1189 49.5822C40.0321 50.1906 40.005 50.8061 40.0381 51.4198C40.0694 51.9855 40.156 52.5468 40.2967 53.0955C40.5995 54.4231 41.4015 55.5828 42.5359 56.3336C43.1028 56.6623 43.7309 56.8714 44.3815 56.948C45.0321 57.0246 45.6915 56.967 46.3191 56.7789C47.363 56.4743 48.357 56.0189 49.2696 55.427C50.2 54.7997 51.0428 54.0511 51.7756 53.2008L52.5435 52.197L53.6914 50.416L52.6648 53.9617L51.3795 57.4265C50.7137 59.0461 49.8502 60.5769 48.8089 61.9841C48.6876 62.146 48.6876 62.2269 48.7604 62.2431C48.0926 63.0526 47.2012 63.6468 46.1978 63.9512C45.5416 64.1622 44.8323 64.1364 44.1931 63.8784C43.9433 63.7795 43.7203 63.6232 43.542 63.4221C43.3637 63.221 43.235 62.9808 43.1664 62.7208C43.0614 62.3617 43.099 61.9759 43.2715 61.6441C43.3538 61.4874 43.4684 61.3501 43.6078 61.2412C43.7472 61.1323 43.9081 61.0544 44.0799 61.0127L44.3467 60.9398L44.6862 60.8508V60.7698C44.6213 60.5812 44.5034 60.4153 44.3467 60.2922L43.7727 59.9036C43.4389 59.8399 43.0961 59.8399 42.7623 59.9036C42.0812 60.1007 41.5022 60.553 41.1455 61.1665C40.9351 61.4447 40.7884 61.7659 40.7158 62.1072C40.6431 62.4486 40.6463 62.8017 40.7252 63.1417C40.8233 63.5689 41.0317 63.9627 41.3296 64.2838C41.6276 64.6049 42.0045 64.842 42.4227 64.9712C43.5347 65.2785 44.7121 65.2532 45.8098 64.8984C46.7857 64.6237 47.729 64.2437 48.6229 63.765C49.7235 63.1866 50.7775 62.5235 51.7756 61.7817C53.0694 60.7945 54.1662 59.5725 55.0091 58.1793C55.7312 56.9974 56.3321 55.9181 56.8117 54.9412C57.0477 54.5617 57.2584 54.1668 57.4422 53.7593C58.115 52.1736 58.7006 50.5521 59.1964 48.9022C59.9421 46.3578 60.5599 43.7776 61.0476 41.1712L59.6895 41.8836C59.3649 42.0699 59.0206 42.2192 58.6629 42.3289C58.4856 42.3928 58.3128 42.4686 58.1455 42.5555L57.515 42.7174L56.5935 42.9603L51.048 45.0165C50.951 45.4293 50.8459 44.9436 50.7409 45.3565C50.5549 46.2146 54.9363 45.7855 54.8959 45.8908C54.7167 46.5519 54.4814 47.1965 54.1926 47.8174L53.5136 49.1612L52.7052 50.3027C52.2191 50.8179 51.6768 51.2768 51.0885 51.6708C50.5414 52.0624 49.9318 52.358 49.2858 52.545C48.4225 52.7944 47.4959 52.6925 46.7071 52.2617C46.3452 52.079 46.0262 51.8215 45.7712 51.5061C45.5162 51.1907 45.3309 50.8247 45.2278 50.4322L45.0661 48.5703V46.8136L45.244 45.6074L45.7047 44.0936L46.1089 43.0979L46.1978 43.0089L46.7799 41.3898L47.8873 39.3174L49.9891 36.2331C50.7277 35.1703 51.6029 34.2095 52.592 33.3755C53.2111 32.8621 53.8929 32.4296 54.621 32.0884C55.1355 31.8258 55.6778 31.6222 56.2378 31.4812C58.0162 31.0117 59.0751 31.3841 59.3823 32.5741C59.4671 33.01 59.4449 33.4601 59.3177 33.8855C59.0201 34.7378 58.6635 35.5682 58.2506 36.3708C57.7333 37.415 61.3871 36.476 62.1389 35.1727C62.8177 34.2062 63.0906 33.0114 62.8987 31.8455Z" fill="white"/>
<path d="M42.5531 36.0069C42.9199 37.267 42.9641 38.5994 42.6815 39.8811C42.399 41.1628 41.7988 42.3527 40.9363 43.3411C39.1633 45.4999 36.3044 47.0919 32.3595 48.1173C29.665 48.8189 27.4554 48.773 25.7309 47.9797C24.8481 47.5635 24.0747 46.9463 23.4726 46.1775C22.8705 45.4086 22.4562 44.5094 22.263 43.5516C21.9511 42.4132 21.8814 41.2218 22.0582 40.0546C22.2351 38.8875 22.6546 37.7705 23.2896 36.7759C23.908 35.7369 24.7269 34.8318 25.6985 34.1132C26.67 33.3946 27.7747 32.877 28.9482 32.5907C30.1797 32.2118 31.509 32.316 32.6667 32.8821C33.2195 33.1541 33.7051 33.5458 34.0881 34.0288C34.4712 34.5118 34.7422 35.0741 34.8816 35.6749C35.0496 36.3559 35.0744 37.0644 34.9544 37.7554C34.8269 38.5058 34.5251 39.2157 34.0733 39.8278L33.3942 40.8316C33.2251 41.0923 32.9911 41.3043 32.7152 41.4469L32.3434 41.1473C32.3518 40.9944 32.3974 40.8458 32.4763 40.7146C32.5552 40.5834 32.665 40.4735 32.796 40.3945C33.2199 39.8991 33.4623 39.2737 33.4832 38.6216C33.5966 37.9034 33.5747 37.1703 33.4185 36.4602C33.1805 35.4341 32.5806 34.5286 31.729 33.9102C31.3301 33.6189 30.8699 33.4229 30.3837 33.3374C29.8975 33.2518 29.3981 33.2788 28.924 33.4164C28.1696 33.6079 27.4688 33.9692 26.8748 34.4728C26.2809 34.9764 25.8095 35.609 25.4965 36.3226C24.771 37.9236 24.6588 39.7359 25.1812 41.4145C25.5806 43.3439 26.6558 45.0666 28.2126 46.2716C28.9273 46.7881 29.7527 47.1303 30.6228 47.2708C31.4929 47.4114 32.3838 47.3464 33.2245 47.0811C34.8887 46.7146 36.3412 45.7051 37.2663 44.2721C37.7042 43.5649 37.9862 42.7723 38.0935 41.9473C38.2009 41.1222 38.131 40.2837 37.8888 39.4878C37.3491 37.8858 36.6017 36.3616 35.6658 34.9545L33.2811 30.9473C32.9467 30.2641 32.6761 29.5514 32.4727 28.8183C32.2543 27.9137 32.2518 26.9704 32.4653 26.0646C32.6787 25.1589 33.1022 24.3163 33.7014 23.605C35.0241 21.8609 36.9144 20.6352 39.0447 20.1402C40.4789 19.6892 42.0214 19.7233 43.4342 20.2373C44.0056 20.4535 44.5156 20.8062 44.9199 21.2647C45.3243 21.7233 45.6106 22.2737 45.7542 22.8683C45.9027 23.4868 45.907 24.1313 45.7668 24.7518C45.6267 25.3723 45.3457 25.9521 44.9458 26.4464C44.0726 27.6497 42.7954 28.4976 41.3486 28.8345C40.807 28.9802 40.4998 28.9316 40.4351 28.6807C40.3705 28.4297 40.6049 28.203 41.1465 28.0573C41.5836 27.9223 41.9848 27.6907 42.3206 27.3797C42.6564 27.0686 42.9181 26.6861 43.0866 26.2602C43.5477 25.3527 43.6627 24.3079 43.4099 23.3216C43.2279 22.431 42.7021 21.6484 41.9468 21.144C41.5762 20.9215 41.1628 20.7798 40.7338 20.7282C40.3048 20.6766 39.8697 20.7162 39.457 20.8445C38.989 20.9352 38.5496 21.1369 38.1755 21.4326C37.8013 21.7284 37.5034 22.1097 37.3067 22.5445C36.9121 23.5076 36.8664 24.5787 37.1774 25.5721C37.3125 26.0829 37.491 26.5812 37.7109 27.0616C38.0027 27.686 38.3376 28.2892 38.7133 28.8669L40.5402 31.7569C41.4183 33.0622 42.0891 34.4958 42.5288 36.0069" fill="white"/>
<path d="M12.5943 28.2527C12.4154 28.6536 12.1371 29.0019 11.7859 29.2647C11.381 29.2604 10.9836 29.1546 10.6299 28.957C10.6167 28.933 10.6089 28.9064 10.6071 28.879C10.6053 28.8516 10.6096 28.8242 10.6197 28.7987C10.6297 28.7731 10.6452 28.7502 10.6652 28.7314C10.6851 28.7125 10.709 28.6984 10.735 28.6899C11.0374 28.7485 11.3501 28.7195 11.6365 28.6062C11.9229 28.4929 12.1711 28.3001 12.3518 28.0504C12.4043 27.9618 12.4376 27.8631 12.4497 27.7608C12.4617 27.6584 12.4522 27.5547 12.4217 27.4563C12.3913 27.3579 12.3405 27.267 12.2728 27.1894C12.205 27.1119 12.1218 27.0494 12.0284 27.0061C11.7669 26.9275 11.4887 26.923 11.2248 26.993C10.9608 27.063 10.7214 27.2049 10.5329 27.4027C10.3013 27.6284 10.0106 27.7839 9.69452 27.8512C9.37842 27.9185 9.04975 27.8949 8.74644 27.7832C7.99466 27.4189 7.75215 26.5851 8.221 25.6218C8.34513 25.3627 8.50575 25.1228 8.69794 24.9094C8.75671 24.846 8.81075 24.7784 8.85961 24.707C9.2114 24.7696 9.55194 24.8842 9.87007 25.047C9.88078 25.0715 9.88655 25.0978 9.88706 25.1245C9.88756 25.1511 9.8828 25.1777 9.87303 25.2025C9.86326 25.2273 9.84869 25.25 9.83014 25.2691C9.8116 25.2883 9.78946 25.3036 9.76499 25.3142C9.5324 25.2582 9.28837 25.2739 9.06482 25.3591C8.84127 25.4443 8.6486 25.5951 8.51201 25.7918C8.46192 25.874 8.42962 25.9659 8.41722 26.0614C8.40482 26.157 8.41258 26.254 8.44001 26.3464C8.46745 26.4387 8.51393 26.5242 8.57647 26.5974C8.639 26.6706 8.71619 26.7299 8.80303 26.7713C8.98343 26.8273 9.17532 26.8351 9.35966 26.794C9.544 26.7528 9.71438 26.664 9.85391 26.5366L10.2985 26.2127C10.5333 26.003 10.8219 25.863 11.1318 25.8087C11.4418 25.7543 11.7607 25.7877 12.0527 25.9051C12.8772 26.318 13.055 27.2489 12.5943 28.2527Z" fill="#191819"/>
<path d="M14.3817 20.3429C14.6889 20.5201 14.9537 20.7625 15.1572 21.0532C15.3608 21.3438 15.4983 21.6757 15.5599 22.0253C15.6216 22.3749 15.6059 22.7339 15.5141 23.0768C15.4222 23.4197 15.2564 23.7383 15.0284 24.0101C14.8553 24.3028 14.6227 24.5559 14.3457 24.7529C14.0687 24.9498 13.7534 25.0863 13.4204 25.1535C13.0873 25.2207 12.7439 25.217 12.4124 25.1427C12.0808 25.0685 11.7685 24.9253 11.4958 24.7225C11.2 24.5345 10.9461 24.2875 10.75 23.9968C10.5538 23.7062 10.4197 23.3781 10.356 23.0331C10.2922 22.6882 10.3003 22.3338 10.3796 21.992C10.4588 21.6503 10.6077 21.3287 10.8168 21.0472C10.9902 20.7502 11.2247 20.4936 11.5046 20.2942C11.7846 20.0948 12.1037 19.9572 12.4407 19.8906C12.7778 19.8241 13.1251 19.8299 13.4597 19.9079C13.7943 19.9859 14.1086 20.1342 14.3817 20.3429ZM11.0674 21.3144C10.5581 22.0672 10.9865 22.9334 12.0131 23.6458C12.7649 24.1558 14.1392 24.7063 14.8182 23.7025C15.3598 22.8929 14.8182 22.0834 13.7916 21.3791C12.7649 20.6748 11.5847 20.5453 11.0674 21.3144Z" fill="#191819"/>
<path d="M14.1947 18.4981C13.6935 18.0286 13.6288 18.0205 13.3863 18.2229L13.2327 18.3362C13.2087 18.3362 13.1849 18.3314 13.1627 18.3219C13.1406 18.3125 13.1206 18.2986 13.104 18.2812C13.0874 18.2638 13.0745 18.2432 13.066 18.2207C13.0576 18.1981 13.0538 18.1741 13.0549 18.15C13.3055 17.8991 13.5641 17.64 13.8147 17.3405C14.0653 17.041 14.3078 16.8062 14.5423 16.531C14.5879 16.5341 14.6311 16.5526 14.6649 16.5834C14.6987 16.6143 14.721 16.6558 14.7282 16.701L14.6312 16.8548C14.4534 17.1462 14.4614 17.211 14.9626 17.6643L16.2075 18.8381C16.838 19.4291 17.5979 20.02 18.3659 19.1943C19.0125 18.5062 18.6084 17.721 17.8727 17.0329L17.218 16.4176C16.9017 16.1028 16.5457 15.8307 16.159 15.6081C16.0742 15.5911 15.9865 15.5963 15.9044 15.6233C15.8222 15.6502 15.7484 15.698 15.6902 15.7619L15.5285 15.8834C15.4842 15.8766 15.4428 15.8569 15.4097 15.8266C15.3766 15.7964 15.3533 15.7569 15.3426 15.7134C15.6255 15.43 15.8276 15.2276 16.0378 15.0091C16.2479 14.7905 16.4096 14.6043 16.5874 14.3857C16.6318 14.3925 16.6731 14.4122 16.7062 14.4425C16.7393 14.4727 16.7627 14.5122 16.7734 14.5557L16.7006 14.6691C16.6466 14.7314 16.6094 14.8065 16.5924 14.8872C16.5755 14.9679 16.5793 15.0517 16.6036 15.1305C16.8459 15.5215 17.1395 15.8782 17.4766 16.191L18.0829 16.7576C18.5921 17.1416 18.9407 17.7013 19.0611 18.3281C19.0597 18.596 19.0046 18.8609 18.8991 19.107C18.7936 19.3531 18.6397 19.5755 18.4467 19.761C18.1224 20.1767 17.6611 20.4636 17.1452 20.5705C16.8372 20.5758 16.532 20.5116 16.2521 20.3826C15.9722 20.2537 15.7249 20.0634 15.5285 19.8257L14.1947 18.4981Z" fill="#191819"/>
<path d="M18.9636 13.1872C18.8505 13.0496 18.8343 13.0172 18.6888 13.1306L18.325 13.4139C18.1504 13.5594 18.0338 13.763 17.9967 13.9874C17.9596 14.2119 18.0044 14.4422 18.1229 14.6363C18.1016 14.684 18.0632 14.722 18.0154 14.7429C17.9676 14.7639 17.9137 14.7663 17.8643 14.7496C17.6975 14.3558 17.503 13.9744 17.2822 13.6082C17.2901 13.5705 17.31 13.5365 17.3388 13.511C17.3661 13.4876 17.4 13.4734 17.4358 13.4706C17.5409 13.5434 17.5813 13.5596 18.0178 13.2115L20.1843 11.5115C20.5723 11.212 20.6531 11.131 20.6046 10.9691C20.6193 10.9395 20.6417 10.9144 20.6693 10.8963C20.6884 10.888 20.7091 10.8838 20.7299 10.8838C20.7508 10.8838 20.7714 10.888 20.7905 10.8963C20.9781 11.2794 21.2115 11.6383 21.4857 11.9649C21.4771 12.0138 21.4526 12.0585 21.4161 12.0921C21.3796 12.1258 21.3331 12.1465 21.2837 12.151C21.1552 11.9816 20.9653 11.8696 20.755 11.8393C20.5447 11.809 20.331 11.8629 20.16 11.9891L19.8124 12.2644C19.675 12.3777 19.6669 12.402 19.8124 12.5558L21.8253 15.1301C22.2537 15.6725 22.3184 15.6887 22.6336 15.5187L22.8519 15.381C22.8957 15.3952 22.9344 15.4219 22.9631 15.4579C22.9919 15.4939 23.0094 15.5375 23.0136 15.5834L22.0678 16.2958C21.7848 16.5144 21.4938 16.7572 21.0896 17.1053C21.044 17.0945 21.0033 17.0687 20.974 17.032C20.9447 16.9953 20.9285 16.9499 20.928 16.9029L21.1705 16.6682C21.3968 16.4253 21.4049 16.3525 20.9765 15.8101L18.9636 13.1872Z" fill="#191819"/>
<path d="M24.8887 11.5354C24.622 11.6811 24.622 11.6892 24.719 11.8754L25.2282 12.8145C25.5597 13.4216 25.6243 13.4459 25.9396 13.3407L26.1579 13.2516C26.2002 13.2707 26.2351 13.3032 26.2571 13.3442C26.279 13.3852 26.2868 13.4324 26.2791 13.4783L25.2767 13.9964C24.9615 14.1664 24.6462 14.3526 24.3229 14.5387C24.2805 14.5197 24.2456 14.4871 24.2237 14.4461C24.2017 14.4051 24.194 14.358 24.2016 14.3121L24.3714 14.2068C24.63 13.9883 24.6462 13.9235 24.3148 13.3164L23.0052 10.8878C22.6738 10.2806 22.6172 10.2564 22.2858 10.3616L22.116 10.4264C22.0646 10.4165 22.0187 10.3878 21.9873 10.3459C21.956 10.304 21.9413 10.2519 21.9463 10.1997C22.2696 10.0378 22.6172 9.8597 22.9244 9.6897C23.2316 9.5197 23.5387 9.3497 23.8136 9.1797C23.856 9.19875 23.8909 9.23132 23.9128 9.27233C23.9347 9.31334 23.9425 9.36047 23.9348 9.40636L23.8055 9.50351C23.563 9.71398 23.563 9.77874 23.9106 10.3859L24.3229 11.1387C24.428 11.3249 24.436 11.333 24.7028 11.1873L26.0528 10.4506C26.3276 10.3049 26.3195 10.2968 26.2225 10.1106L25.8103 9.35779C25.4788 8.75065 25.4222 8.72636 25.0989 8.8316L24.9049 8.90446C24.8625 8.88541 24.8276 8.85284 24.8057 8.81183C24.7837 8.77082 24.776 8.72368 24.7836 8.67779L25.786 8.1597C26.1013 7.9897 26.4004 7.8197 26.6914 7.6416C26.7338 7.66065 26.7687 7.69323 26.7906 7.73424C26.8125 7.77525 26.8203 7.82238 26.8126 7.86827L26.6914 7.95732C26.4246 8.17589 26.4085 8.24875 26.7399 8.84779L28.0494 11.2764C28.3809 11.8835 28.4375 11.9078 28.7689 11.7945L28.9387 11.7378C28.981 11.7568 29.0159 11.7894 29.0379 11.8304C29.0598 11.8714 29.0676 11.9186 29.0599 11.9645C28.7285 12.1264 28.4051 12.2964 28.106 12.4583C27.8069 12.6202 27.4674 12.8145 27.1602 13.0006C27.1179 12.9816 27.083 12.949 27.061 12.908C27.0391 12.867 27.0313 12.8199 27.039 12.774L27.1683 12.6768C27.4351 12.4583 27.4432 12.3935 27.1117 11.7864L26.6025 10.8473C26.5055 10.6611 26.4974 10.6611 26.2306 10.8473L24.8887 11.5354Z" fill="#191819"/>
<path d="M30.7583 8.20903C30.823 8.40331 30.8391 8.4195 31.0251 8.35474L31.5101 8.19283C31.8739 8.07141 31.9385 7.99855 31.8981 7.63426V7.44807C31.9258 7.40736 31.9664 7.37721 32.0134 7.36252C32.0603 7.34782 32.1109 7.34945 32.1568 7.36712C32.2214 7.59379 32.2942 7.85283 32.3831 8.11998C32.472 8.38712 32.561 8.63807 32.6499 8.85664C32.6258 8.9014 32.5863 8.9359 32.5387 8.95376C32.4912 8.97162 32.4388 8.97163 32.3912 8.95379L32.2942 8.79188C32.2766 8.72668 32.2435 8.66669 32.1978 8.61698C32.1521 8.56727 32.0952 8.5293 32.0317 8.50627C31.9683 8.48325 31.9003 8.47585 31.8334 8.4847C31.7665 8.49355 31.7028 8.51839 31.6475 8.55712L31.1625 8.71903C30.9766 8.78379 30.9685 8.79188 31.0412 9.00236L31.3242 9.81188C31.3781 10.0493 31.4955 10.2675 31.6637 10.4433C31.7922 10.5048 31.9346 10.5312 32.0766 10.5198C32.2185 10.5084 32.3549 10.4597 32.472 10.3785C32.7603 10.3382 33.0217 10.1873 33.2011 9.95781C33.3805 9.7283 33.464 9.43801 33.434 9.14807C33.4467 9.12439 33.4647 9.10391 33.4864 9.08816C33.5082 9.07241 33.5332 9.0618 33.5597 9.05713C33.5861 9.05245 33.6133 9.05384 33.6391 9.06118C33.665 9.06852 33.6888 9.08162 33.7088 9.0995C33.7953 9.50082 33.8225 9.91265 33.7897 10.3219C33.4098 10.4352 32.7388 10.6538 32.1729 10.8481L31.2595 11.1557L30.0308 11.609C29.9925 11.5831 29.9639 11.5452 29.9492 11.5013C29.9346 11.4574 29.9349 11.4099 29.9499 11.3662L30.2652 11.2043C30.5643 11.0585 30.5885 10.9938 30.3784 10.3462L29.473 7.72331C29.2224 7.08379 29.2224 7.05141 28.8667 7.09998H28.6808C28.6396 7.07476 28.6098 7.03446 28.5977 6.98762C28.5856 6.94078 28.5922 6.89107 28.6161 6.84903L29.6347 6.53331L31.1221 6.03141C31.5748 5.8776 31.9304 5.73998 32.0517 5.69141C32.1002 5.80474 32.3185 6.29045 32.5044 6.75188C32.4954 6.77584 32.4818 6.79778 32.4643 6.81645C32.4469 6.83512 32.4259 6.85015 32.4026 6.86068C32.3793 6.87121 32.3542 6.87703 32.3286 6.87781C32.3031 6.87859 32.2777 6.87431 32.2538 6.86522C32.1335 6.68406 31.9798 6.52747 31.8011 6.40379C31.681 6.35257 31.5517 6.32618 31.4212 6.32618C31.2906 6.32618 31.1614 6.35257 31.0412 6.40379L30.4835 6.58998C30.249 6.67093 30.2571 6.67902 30.346 6.93807L30.7583 8.20903Z" fill="#191819"/>
<path d="M34.7263 6.30661C34.6051 5.57804 34.5727 5.49708 34.2575 5.49708H34.0715C34.0528 5.48112 34.0377 5.46128 34.0274 5.43891C34.0171 5.41655 34.0117 5.3922 34.0117 5.36756C34.0117 5.34292 34.0171 5.31857 34.0274 5.29621C34.0377 5.27384 34.0528 5.254 34.0715 5.23804C34.6131 5.10851 35.179 4.97899 35.8661 4.86566C36.3495 4.74791 36.854 4.74791 37.3373 4.86566C37.5482 4.9376 37.7352 5.06632 37.8778 5.23768C38.0204 5.40904 38.1131 5.61643 38.1457 5.83708C38.1841 6.07796 38.1482 6.32483 38.0428 6.54471C37.9373 6.76459 37.7673 6.947 37.5556 7.06756C37.4909 7.11613 37.499 7.15661 37.5556 7.23756C37.9344 7.8593 38.4218 8.40772 38.9945 8.85661C39.1533 8.94959 39.3365 8.99195 39.5199 8.97804C39.5366 8.98582 39.5514 8.99686 39.5637 9.01051C39.576 9.02415 39.5855 9.04012 39.5915 9.05747C39.5975 9.07482 39.6 9.09321 39.5988 9.11155C39.5976 9.12988 39.5928 9.14779 39.5846 9.16423C39.4062 9.24915 39.215 9.30386 39.0187 9.32613C38.7381 9.39544 38.4435 9.38271 38.1698 9.28945C37.8962 9.19619 37.6549 9.0263 37.4748 8.79994C37.1978 8.4726 36.9439 8.12637 36.7149 7.76375C36.6744 7.68938 36.6102 7.63067 36.5326 7.59695C36.455 7.56322 36.3684 7.5564 36.2865 7.57756C36.0278 7.61804 36.0197 7.63423 36.0439 7.78804L36.1975 8.68661C36.3107 9.35851 36.3673 9.39899 36.6987 9.40708H36.9008C36.9325 9.44134 36.9533 9.48428 36.9605 9.53043C36.9677 9.57658 36.961 9.62382 36.9412 9.66613L35.8661 9.82804L34.8071 10.0304C34.7721 9.99819 34.7491 9.95502 34.7417 9.90797C34.7344 9.86091 34.7432 9.81276 34.7667 9.77137L34.9203 9.7147C35.2356 9.60137 35.276 9.5447 35.1628 8.90518L34.7263 6.30661ZM35.8823 7.06756C35.9227 7.28613 35.9469 7.3428 36.3835 7.28613C36.4862 7.27677 36.5857 7.24513 36.6751 7.19341C36.7644 7.14169 36.8414 7.07112 36.9008 6.98661C37.0488 6.74441 37.0953 6.45345 37.0302 6.17708C37.023 6.03913 36.9867 5.90426 36.9238 5.78133C36.8609 5.6584 36.7727 5.55019 36.6651 5.4638C36.5574 5.37741 36.4327 5.3148 36.2992 5.28007C36.1657 5.24535 36.0264 5.2393 35.8904 5.26232C35.5913 5.31089 35.5913 5.33518 35.6398 5.69137L35.8823 7.06756Z" fill="#191819"/>
<path d="M44.5169 7.90915C44.5169 8.39487 44.5169 8.85629 44.5169 9.09915C44.4606 9.15768 44.3927 9.20376 44.3175 9.23443C44.2423 9.2651 44.1615 9.27969 44.0804 9.27725C44.0804 9.27725 43.8217 8.90486 43.466 8.46772L41.7604 6.38725C41.5136 6.05538 41.2434 5.74157 40.952 5.4482C40.923 5.60608 40.923 5.76794 40.952 5.92582V7.36677C40.9359 7.82113 40.9794 8.27564 41.0814 8.71867C41.1296 8.78976 41.1948 8.84769 41.271 8.88726C41.3472 8.92683 41.432 8.94679 41.5179 8.94534H41.7281C41.7534 8.98376 41.767 9.0288 41.767 9.07486C41.767 9.12093 41.7534 9.16597 41.7281 9.20439H40.7176H39.9092C39.8838 9.16597 39.8703 9.12093 39.8703 9.07486C39.8703 9.0288 39.8838 8.98376 39.9092 8.94534H40.0386C40.1218 8.94179 40.2027 8.91683 40.2735 8.87288C40.3443 8.82892 40.4026 8.76745 40.4427 8.69439C40.5242 8.24596 40.5514 7.78933 40.5236 7.33439V5.4482C40.5225 5.24513 40.4813 5.04428 40.4023 4.85725C40.3591 4.78216 40.2965 4.72004 40.2212 4.67733C40.1458 4.63463 40.0604 4.61289 39.9739 4.61439L39.7314 4.5901C39.7011 4.55374 39.6846 4.50791 39.6846 4.46058C39.6846 4.41325 39.7011 4.36742 39.7314 4.33105H40.7499C41.0005 4.33105 41.2188 4.33105 41.3724 4.33105C41.6948 4.95053 42.1152 5.51368 42.6173 5.99867L43.2478 6.71915C43.5873 7.09963 43.7975 7.35867 43.9753 7.52867C43.9924 7.4187 43.9924 7.30674 43.9753 7.19677V6.17677C43.9915 5.72241 43.948 5.26788 43.846 4.82486C43.7988 4.75271 43.7338 4.69394 43.6574 4.65424C43.5809 4.61454 43.4955 4.59523 43.4095 4.5982H43.2074C43.182 4.55978 43.1685 4.51474 43.1685 4.46867C43.1685 4.42261 43.182 4.37757 43.2074 4.33915H44.2017H45.01C45.0354 4.37757 45.0489 4.42261 45.0489 4.46867C45.0489 4.51474 45.0354 4.55978 45.01 4.5982H44.8807C44.7989 4.6031 44.7196 4.62869 44.6504 4.67258C44.5811 4.71646 44.5241 4.77721 44.4846 4.84915C44.3954 5.2966 44.3655 5.75387 44.3957 6.20915L44.5169 7.90915Z" fill="#191819"/>
<path d="M51.7924 9.56014C51.7278 9.86776 51.7116 10.0135 51.8409 10.0701C51.8493 10.1009 51.8484 10.1334 51.8383 10.1637C51.8282 10.1939 51.8095 10.2205 51.7844 10.2401C51.6068 10.2258 51.4284 10.2258 51.2508 10.2401C50.8094 10.2587 50.3672 10.2261 49.9332 10.143C49.4421 10.0517 48.9746 9.86173 48.559 9.58442C48.1627 9.31776 47.8578 8.93552 47.6858 8.48952C47.5137 8.04352 47.4827 7.55532 47.597 7.09109C47.6778 6.6411 47.8837 6.22308 48.1912 5.88511C48.4986 5.54714 48.8951 5.30294 49.335 5.18061C49.9186 5.03224 50.5299 5.03224 51.1134 5.18061C51.5888 5.30593 52.0537 5.46833 52.5038 5.66633C52.5038 5.8849 52.3826 6.3949 52.3583 6.85633C52.316 6.88604 52.264 6.89841 52.2128 6.89088C52.1617 6.88335 52.1154 6.8565 52.0835 6.81585C52.0728 6.49812 51.9527 6.19388 51.7434 5.95482C51.5342 5.71575 51.2487 5.55661 50.9356 5.50442C49.7877 5.26157 49.0278 6.09537 48.7853 7.2449C48.668 7.6083 48.6443 7.9955 48.7163 8.37054C48.7884 8.74558 48.954 9.0963 49.1976 9.39014C49.4528 9.64031 49.7763 9.8093 50.1272 9.87585C50.5395 9.9649 50.6446 9.87585 50.7416 9.43061L50.8386 8.90442C50.9194 8.51585 50.8871 8.45918 50.5476 8.33776L50.2404 8.2568C50.2259 8.23717 50.2158 8.21464 50.2108 8.19075C50.2058 8.16686 50.206 8.14217 50.2113 8.11836C50.2167 8.09455 50.2271 8.07218 50.2419 8.05276C50.2567 8.03335 50.2755 8.01735 50.297 8.00585L51.5176 8.28918C51.8652 8.36204 52.2209 8.4268 52.4715 8.46728C52.4911 8.50949 52.4962 8.55701 52.4859 8.60242C52.4757 8.64783 52.4507 8.68856 52.4149 8.71823H52.2371C52.0107 8.71823 51.9541 8.7749 51.8733 9.16347L51.7924 9.56014Z" fill="#191819"/>
<path d="M54.3216 10.0292C54.2092 10.2458 54.1642 10.4911 54.1922 10.7335C54.2541 10.8577 54.3468 10.9639 54.4615 11.0418C54.5762 11.1198 54.7089 11.1669 54.847 11.1787C55.4775 11.4135 55.6554 11.462 56.391 10.8144C56.4164 10.8058 56.4434 10.8026 56.4702 10.8049C56.4969 10.8073 56.5229 10.8152 56.5465 10.8281C56.57 10.841 56.5907 10.8587 56.607 10.8801C56.6234 10.9014 56.6352 10.9259 56.6416 10.9521C56.4414 11.322 56.1911 11.6625 55.8979 11.964C55.5341 11.8101 54.8713 11.5592 54.2812 11.3487L53.3515 11.0006L52.2441 10.6121C52.2246 10.5684 52.2213 10.5192 52.2346 10.4732C52.2479 10.4273 52.277 10.3876 52.3168 10.3611L52.6644 10.4259C52.9958 10.4906 53.0524 10.4259 53.2949 9.81062L54.2569 7.22824C54.4994 6.58062 54.4752 6.51586 54.1841 6.34586L53.9901 6.24062C53.9798 6.2185 53.9744 6.19442 53.9742 6.17001C53.974 6.1456 53.9791 6.12144 53.9891 6.09916C53.999 6.07689 54.0137 6.05703 54.032 6.04093C54.0503 6.02483 54.0719 6.01287 54.0952 6.00586L55.0895 6.41872C55.421 6.54014 55.7686 6.66157 56.1242 6.77491C56.1385 6.81952 56.1375 6.86764 56.1214 6.91163C56.1053 6.95562 56.075 6.99297 56.0353 7.01776H55.8413C55.5099 6.9611 55.4452 7.01776 55.2108 7.633L54.3216 10.0292Z" fill="#191819"/>
<path d="M58.5336 11.382C58.38 11.301 58.3558 11.2929 58.2507 11.382L57.604 12.0053C57.5366 12.066 57.4793 12.1371 57.4342 12.2158C57.4342 12.2158 57.4342 12.321 57.6121 12.4506L57.7899 12.5882C57.7945 12.6347 57.7835 12.6815 57.7586 12.721C57.7337 12.7606 57.6964 12.7908 57.6525 12.8067C57.4342 12.6691 57.1756 12.5315 56.9007 12.3777C56.6259 12.2239 56.5208 12.1996 56.2217 12.0377C56.2076 11.9925 56.2105 11.9436 56.2299 11.9004C56.2492 11.8572 56.2837 11.8225 56.3268 11.8029L56.5127 11.8758C56.6082 11.9195 56.7149 11.932 56.8179 11.9117C56.9209 11.8913 57.0149 11.8391 57.0866 11.7625C57.3453 11.5682 57.6282 11.3091 58.0567 10.9529L59.4875 9.71436C59.7628 9.53106 60.0014 9.29766 60.1908 9.02626C60.4625 9.07492 60.7424 9.04689 60.9991 8.94531C61.0188 8.95318 61.0366 8.96502 61.0514 8.98009C61.0662 8.99516 61.0778 9.01313 61.0854 9.03289C61.093 9.05265 61.0964 9.07376 61.0955 9.09491C61.0946 9.11605 61.0893 9.13678 61.08 9.15579C61.0315 9.37436 60.9749 9.65769 60.894 10.2082L60.4009 13.2439C60.3367 13.3752 60.314 13.523 60.3356 13.6676C60.3573 13.8122 60.4224 13.9467 60.5222 14.0534L60.7485 14.191C60.7529 14.2376 60.7429 14.2843 60.7197 14.3249C60.6966 14.3655 60.6615 14.3979 60.6192 14.4177C60.312 14.2315 59.9644 14.0372 59.6249 13.851C59.2854 13.6648 59.0429 13.5434 58.7357 13.3977C58.7255 13.375 58.7204 13.3504 58.7207 13.3256C58.721 13.3007 58.7268 13.2762 58.7376 13.2539C58.7483 13.2315 58.7639 13.2117 58.7831 13.196C58.8024 13.1803 58.8248 13.169 58.8489 13.1629L59.0752 13.2439C59.2369 13.3006 59.2935 13.2439 59.3096 13.2439C59.3617 13.0774 59.3995 12.9068 59.4228 12.7339L59.5522 12.0782C59.5522 11.9567 59.5522 11.9163 59.3016 11.7948L58.5336 11.382ZM59.4147 11.382C59.5683 11.4629 59.6168 11.4629 59.6492 11.2606L59.7623 10.6372C59.8189 10.3053 59.8836 9.99769 59.8998 9.82769C59.7542 9.93293 59.5037 10.1515 59.245 10.4025L58.8165 10.7991C58.6549 10.9367 58.6872 10.9772 58.8165 11.0663L59.4147 11.382Z" fill="#191819"/>
<path d="M65.0983 12.1028C65.005 11.9959 64.8915 11.9087 64.7642 11.8463C64.637 11.7838 64.4985 11.7474 64.3571 11.7391C64.2156 11.7308 64.0739 11.7509 63.9402 11.798C63.8066 11.8452 63.6836 11.9185 63.5786 12.0138C63.5227 12.0063 63.4711 11.9796 63.4328 11.9383C63.3944 11.8969 63.3716 11.8434 63.3684 11.7871C63.7968 11.4552 64.0959 11.188 64.3869 10.9209C64.4203 10.9274 64.4519 10.9408 64.4798 10.9604C64.5076 10.9799 64.5311 11.005 64.5486 11.0342C64.492 11.1799 64.5082 11.2285 64.9447 11.5604L66.6342 12.8395C67.0384 13.1471 67.2243 13.2847 67.3375 13.3495C67.3483 13.3664 67.354 13.3861 67.354 13.4061C67.354 13.4262 67.3483 13.4459 67.3375 13.4628C66.7124 13.6246 66.0971 13.822 65.4944 14.0538L64.0555 14.5719C63.4816 14.7357 62.9241 14.9525 62.3903 15.2195C62.3903 15.268 62.3903 15.349 62.8753 15.7052L63.425 16.118C63.6384 16.3428 63.9292 16.4779 64.2384 16.4959C64.5476 16.5139 64.8521 16.4136 65.0902 16.2152C65.1446 16.221 65.195 16.2464 65.2321 16.2866C65.2693 16.3267 65.2907 16.379 65.2923 16.4338C64.9984 16.7534 64.6577 17.0263 64.2818 17.2433C63.7968 16.8547 63.4735 16.6038 63.0612 16.288L61.5576 15.1385C61.2424 14.9038 61.0484 14.7661 60.9514 14.7014C60.9349 14.6823 60.9258 14.6578 60.9258 14.6326C60.9258 14.6073 60.9349 14.5829 60.9514 14.5638C61.113 14.5638 61.7193 14.3128 62.0912 14.1833L64.5971 13.2928C64.8315 13.2119 65.4459 12.9771 65.7046 12.8638C65.768 12.8452 65.8261 12.8119 65.8743 12.7666C65.8623 12.7246 65.8407 12.6859 65.8113 12.6536C65.7818 12.6213 65.7453 12.5962 65.7046 12.5804L65.0983 12.1028Z" fill="#191819"/>
<path d="M68.5019 17.1781C68.3564 17.3239 68.3483 17.3401 68.5019 17.4858L68.8333 17.8581C69.1001 18.1334 69.1971 18.1577 69.5042 17.9715L69.6659 17.8662C69.7154 17.8736 69.7608 17.8976 69.7946 17.9345C69.8285 17.9713 69.8487 18.0187 69.8518 18.0686C69.674 18.2224 69.4719 18.4005 69.2698 18.5948C69.0677 18.7891 68.8818 18.9834 68.7201 19.1534C68.6699 19.1496 68.6227 19.128 68.5871 19.0923C68.5515 19.0567 68.5299 19.0094 68.5261 18.9591L68.6312 18.8053C68.679 18.7593 68.7155 18.7029 68.7378 18.6404C68.7601 18.5779 68.7677 18.511 68.7599 18.4451C68.752 18.3792 68.729 18.316 68.6927 18.2605C68.6563 18.205 68.6076 18.1587 68.5504 18.1253L68.1947 17.7529C68.0573 17.6072 68.0492 17.6072 67.8875 17.7529L67.2489 18.3601C67.0567 18.5092 66.9086 18.7079 66.8205 18.9348C66.8205 19.0753 66.857 19.2134 66.9265 19.3354C66.9959 19.4575 67.0959 19.5594 67.2166 19.631C67.3757 19.8746 67.6229 20.047 67.9063 20.1119C68.1897 20.1768 68.4872 20.1292 68.7363 19.9791C68.763 19.9805 68.789 19.9879 68.8124 20.0008C68.8359 20.0137 68.8561 20.0317 68.8717 20.0534C68.8872 20.0752 68.8976 20.1002 68.9022 20.1266C68.9067 20.153 68.9053 20.18 68.898 20.2058C68.5734 20.4565 68.2139 20.6583 67.8309 20.8048C67.5722 20.5134 67.0791 19.9953 66.6588 19.5581L65.9959 18.862C65.7534 18.6029 65.4947 18.352 65.0986 17.9553C65.1128 17.9112 65.1411 17.8731 65.1791 17.8468C65.2171 17.8204 65.2627 17.8073 65.3088 17.8096L65.5998 17.9958C65.8585 18.2062 65.9313 18.1981 66.4082 17.7286L68.3968 15.8101C68.8818 15.3405 68.8899 15.2758 68.704 15.0005L68.5989 14.8386C68.6003 14.8109 68.6079 14.7838 68.6212 14.7594C68.6345 14.7349 68.653 14.7138 68.6755 14.6975C68.698 14.6812 68.7238 14.6701 68.7511 14.6651C68.7784 14.6601 68.8065 14.6613 68.8333 14.6686C69.0677 14.9277 69.3102 15.1948 69.5527 15.4781L70.636 16.6115C70.9674 16.9515 71.2584 17.251 71.3392 17.3158L70.5794 18.182C70.5539 18.1842 70.5282 18.1813 70.5038 18.1736C70.4794 18.1658 70.4568 18.1533 70.4373 18.1367C70.4177 18.1202 70.4017 18.0999 70.39 18.0771C70.3783 18.0543 70.3712 18.0294 70.3692 18.0039C70.4823 17.8176 70.5591 17.6116 70.5955 17.3967C70.5875 17.2663 70.5533 17.1389 70.495 17.0221C70.4366 16.9052 70.3554 16.8014 70.256 16.7167L69.8438 16.2877C69.674 16.1096 69.6659 16.1177 69.4638 16.2877L68.5019 17.1781Z" fill="#191819"/>
<path d="M71.6123 19.5741C72.2105 19.137 72.2671 19.0803 72.1215 18.7646L72.065 18.6189C72.0685 18.5946 72.0773 18.5714 72.0907 18.5508C72.1041 18.5303 72.1217 18.5129 72.1425 18.4998C72.1632 18.4867 72.1865 18.4783 72.2108 18.4751C72.2351 18.4719 72.2598 18.474 72.2832 18.4813C72.6389 18.9103 73.0027 19.3637 73.4149 19.9303C73.7287 20.3187 73.9449 20.7767 74.0455 21.266C74.0781 21.4898 74.0478 21.7182 73.9578 21.9256C73.8678 22.133 73.7218 22.3111 73.5362 22.4398C73.3365 22.5777 73.0997 22.6515 72.8572 22.6515C72.6146 22.6515 72.3778 22.5777 72.1781 22.4398C72.1054 22.4398 72.065 22.4398 72.0245 22.5046C71.6361 23.1223 71.3623 23.8052 71.2162 24.5203C71.1663 24.7112 71.1805 24.9131 71.2566 25.0951C71.2547 25.1309 71.2395 25.1648 71.2142 25.1902C71.1888 25.2156 71.155 25.2308 71.1192 25.2327C70.964 25.1098 70.8301 24.9621 70.7231 24.7956C70.5372 24.574 70.4186 24.3038 70.3813 24.0168C70.3441 23.7299 70.3897 23.4383 70.5129 23.1765C70.6829 22.7828 70.88 22.4014 71.103 22.0351C71.1554 21.9681 71.1839 21.8854 71.1839 21.8003C71.1839 21.7152 71.1554 21.6325 71.103 21.5656C70.9494 21.3551 70.9332 21.3551 70.812 21.436L70.0764 21.9703C69.5267 22.367 69.5105 22.4398 69.656 22.7798L69.7449 22.966C69.729 23.0096 69.7005 23.0475 69.6631 23.0748C69.6257 23.1022 69.5811 23.1179 69.5348 23.1198C69.3165 22.796 69.1225 22.5127 68.9123 22.2213C68.7021 21.9298 68.5001 21.6627 68.2656 21.3551C68.2783 21.3095 68.3059 21.2696 68.3441 21.2417C68.3822 21.2138 68.4286 21.1995 68.4758 21.2013L68.6213 21.3389C68.8638 21.5737 68.9285 21.5817 69.4863 21.177L71.6123 19.5741ZM71.4425 20.9503C71.2323 21.1041 71.2243 21.1365 71.4829 21.4846C71.5372 21.5732 71.6102 21.6488 71.6968 21.7061C71.7834 21.7635 71.8815 21.8012 71.9841 21.8165C72.1288 21.8316 72.2751 21.8172 72.414 21.774C72.553 21.7309 72.6817 21.66 72.7925 21.5656C72.913 21.4988 73.0181 21.4072 73.1008 21.297C73.1835 21.1867 73.2421 21.0601 73.2726 20.9256C73.3031 20.7911 73.3049 20.6517 73.2779 20.5165C73.2509 20.3812 73.1957 20.2532 73.1158 20.1408C72.938 19.8979 72.9218 19.906 72.6227 20.1408L71.4425 20.9503Z" fill="#191819"/>
<path d="M75.0407 23.6052C74.7636 23.7515 74.4443 23.7968 74.1376 23.7333C73.8308 23.6698 73.5557 23.5014 73.3592 23.2571C73.3465 23.2343 73.341 23.2082 73.3433 23.1822C73.3456 23.1562 73.3558 23.1315 73.3724 23.1113C73.389 23.0912 73.4113 23.0766 73.4364 23.0693C73.4614 23.0621 73.4881 23.0627 73.5128 23.0709C73.6318 23.1855 73.7813 23.2633 73.9433 23.2949C74.1054 23.3265 74.2731 23.3106 74.4263 23.249C74.523 23.1913 74.5954 23.1002 74.6296 22.9929C74.6639 22.8855 74.6577 22.7693 74.6122 22.6661C74.5967 22.5972 74.6041 22.5251 74.6333 22.4608C74.6625 22.3965 74.7118 22.3435 74.7739 22.3099C74.8876 22.2499 75.0203 22.2376 75.1431 22.2755C75.2659 22.3135 75.3686 22.3986 75.4287 22.5123C75.4763 22.6093 75.5041 22.7149 75.5103 22.8229C75.5165 22.9308 75.5011 23.0389 75.4649 23.1407C75.4288 23.2426 75.3726 23.3362 75.2997 23.4159C75.2269 23.4957 75.1388 23.5601 75.0407 23.6052Z" fill="#191819"/>
<path d="M72.0665 27.2732C71.855 26.8918 71.7437 26.4628 71.7432 26.0265C71.9935 25.6946 72.3247 25.4326 72.7051 25.2656C72.7316 25.27 72.7569 25.2802 72.7791 25.2954C72.8013 25.3105 72.82 25.3303 72.8338 25.3534C72.8476 25.3765 72.8563 25.4023 72.8592 25.4291C72.8621 25.4558 72.8592 25.4829 72.8506 25.5084C72.6256 25.7152 72.4636 25.9816 72.3835 26.2767C72.3034 26.5718 72.3084 26.8837 72.3979 27.1761C72.4368 27.2715 72.4952 27.3577 72.5694 27.4291C72.6436 27.5005 72.7319 27.5556 72.8286 27.5907C72.9254 27.6258 73.0284 27.6401 73.1311 27.6329C73.2337 27.6256 73.3337 27.5968 73.4246 27.5484C73.6455 27.3875 73.8175 27.1684 73.9217 26.9155C74.0258 26.6626 74.058 26.3857 74.0147 26.1156C73.9854 25.7971 74.0455 25.4767 74.1884 25.1907C74.3312 24.9046 74.551 24.6642 74.823 24.4965C75.5667 24.1161 76.3751 24.4237 76.8601 25.3789C76.9898 25.6343 77.0824 25.9069 77.135 26.1884C77.1504 26.2736 77.172 26.3574 77.1996 26.4394C76.9371 26.6816 76.6402 26.8834 76.3185 27.0384C76.2829 27.043 76.2468 27.038 76.2137 27.0239C76.1807 27.0099 76.152 26.9872 76.1306 26.9584C76.1092 26.9295 76.0959 26.8955 76.092 26.8598C76.088 26.8241 76.0937 26.7879 76.1084 26.7551C76.2931 26.6035 76.4276 26.3992 76.494 26.1694C76.5604 25.9396 76.5556 25.695 76.4802 25.468C76.4463 25.3774 76.3937 25.295 76.3258 25.2261C76.258 25.1572 76.1764 25.1035 76.0864 25.0683C75.9963 25.0332 75.8999 25.0175 75.8034 25.0222C75.7069 25.0269 75.6125 25.0519 75.5263 25.0956C75.3723 25.2067 75.2501 25.3565 75.1721 25.5298C75.0941 25.7032 75.0629 25.894 75.0817 26.0832V26.6337C75.11 26.9566 75.045 27.2809 74.8946 27.5679C74.7441 27.855 74.5144 28.0927 74.2329 28.2527C73.4165 28.6656 72.5434 28.2689 72.0665 27.2732Z" fill="#191819"/>
<path d="M21.5836 68.9882C21.4858 68.9153 21.3659 68.8782 21.2441 68.883C20.9357 68.9559 20.6351 69.059 20.3468 69.1906C19.4414 69.5549 17.4852 70.2997 16.5232 70.7449C16.4328 70.7241 16.351 70.6761 16.2888 70.6073C16.2395 70.5589 16.2057 70.4969 16.1918 70.4292C16.2645 70.243 16.3777 69.9677 16.4585 69.7492L16.7415 69.0044C16.8385 68.7535 16.9274 68.5187 16.9597 68.3892L16.4019 68.5835L15.5936 68.883C15.3349 68.972 15.1247 69.0773 14.858 69.1663C14.7818 69.1352 14.7169 69.0815 14.672 69.0125C14.6103 68.9604 14.5677 68.8892 14.5508 68.8101C14.6882 68.4944 14.963 67.7901 15.1813 67.1911L16.2322 64.3577C16.4181 63.8882 16.41 63.8235 16.2322 63.613L16.1271 63.4511C16.1332 63.4009 16.1586 63.3552 16.1978 63.3234C16.237 63.2917 16.2871 63.2765 16.3373 63.2811C16.5232 63.4916 16.7495 63.7263 17.0244 64.0016C17.2992 64.2768 17.4771 64.4468 17.6953 64.6411C17.6957 64.6908 17.6778 64.7389 17.645 64.7762C17.6122 64.8136 17.5668 64.8375 17.5175 64.8435L17.4286 64.7625C17.3154 64.6816 17.2507 64.6735 17.2103 64.7058C17.0596 65.0151 16.9299 65.3342 16.8223 65.6611L16.1675 67.4016C15.9816 67.8873 15.925 68.0573 15.8603 68.2516C16.0463 68.1949 16.2969 68.122 16.6687 67.9844L16.8951 67.8954C17.0045 67.8526 17.1078 67.7954 17.2022 67.7254C17.2495 67.6727 17.2878 67.6125 17.3154 67.5473L17.9055 65.912C17.9871 65.8144 18.0318 65.6912 18.0318 65.5639C18.0318 65.4367 17.9871 65.3134 17.9055 65.2158L17.857 65.1592C17.8579 65.1343 17.864 65.1099 17.8749 65.0875C17.8858 65.0651 17.9013 65.0452 17.9204 65.0292C17.9394 65.0132 17.9616 65.0014 17.9855 64.9945C18.0094 64.9876 18.0345 64.9858 18.0591 64.9892C18.2854 65.232 18.4875 65.4506 18.7301 65.6854C18.9726 65.9201 19.2151 66.163 19.3687 66.2925C19.3732 66.3428 19.3581 66.3929 19.3264 66.4322C19.2947 66.4715 19.249 66.4969 19.1989 66.503L19.0857 66.4301C19.0519 66.398 19.0094 66.3763 18.9635 66.3676C18.9177 66.359 18.8703 66.3639 18.8271 66.3816C18.7791 66.4457 18.741 66.5167 18.7139 66.592L18.5037 67.1263C18.439 67.2882 18.3744 67.4663 18.3259 67.612L18.8271 67.4339L18.9806 67.3773C19.1727 67.3067 19.3547 67.2115 19.5223 67.0939C19.5223 67.0939 19.5223 67.0211 19.5223 66.9077L19.401 66.7054C19.4115 66.6588 19.437 66.617 19.4735 66.5863C19.51 66.5556 19.5555 66.5377 19.6031 66.5354C19.7486 66.7054 19.9426 66.9077 20.1204 67.0858C20.2983 67.2639 20.5408 67.4906 20.6863 67.6201C20.6831 67.6701 20.6629 67.7174 20.6291 67.7543C20.5953 67.7911 20.5498 67.8152 20.5004 67.8225L20.3306 67.7011C20.2106 67.622 20.0701 67.5799 19.9264 67.5799C19.7828 67.5799 19.6423 67.622 19.5223 67.7011C19.1666 67.7901 18.7866 67.9116 18.5765 67.9763C18.4372 68.018 18.3019 68.0722 18.1723 68.1382C18.1321 68.1917 18.1019 68.252 18.0834 68.3163L17.7923 69.1258C17.6226 69.563 17.5417 69.7897 17.5013 69.9354C18.3905 69.563 19.3121 69.1258 20.2336 68.7454C20.4439 68.6568 20.6467 68.5512 20.8399 68.4296C20.8399 68.4296 20.8399 68.3406 20.8399 68.2516L20.7025 68.0006C20.7117 67.9534 20.7368 67.9108 20.7735 67.8799C20.8103 67.8489 20.8566 67.8316 20.9046 67.8306C21.0662 68.0168 21.2764 68.2354 21.4381 68.3973C21.5998 68.5592 21.7938 68.7373 21.9554 68.883C21.9549 68.9321 21.9378 68.9795 21.907 69.0177C21.8762 69.0559 21.8335 69.0826 21.7857 69.0935L21.5836 68.9882Z" fill="#191819"/>
<path d="M21.3337 73.0759C20.9134 73.6587 20.9215 73.7316 21.1721 73.9906L21.3257 74.1445C21.3255 74.1924 21.3096 74.2391 21.2804 74.2771C21.2512 74.3151 21.2103 74.3425 21.164 74.3549C20.8406 74.104 20.5335 73.8773 20.2424 73.6668C19.9514 73.4564 19.6281 73.2378 19.2805 73.003C19.2783 72.9547 19.2922 72.907 19.32 72.8675C19.3478 72.8279 19.3879 72.7987 19.4341 72.7845L19.6362 72.8573C19.9595 73.0111 20.0242 72.9949 20.4445 72.4121L22.0613 70.1211C22.4816 69.5383 22.4735 69.4654 22.223 69.2064L22.0694 69.0526C22.0672 69.0042 22.0811 68.9566 22.1089 68.917C22.1367 68.8775 22.1768 68.8483 22.223 68.834C22.5463 69.0849 22.8535 69.3197 23.1526 69.5302C23.4517 69.7407 23.7589 69.9592 24.1065 70.1859C24.1086 70.2342 24.0947 70.2819 24.0669 70.3214C24.0391 70.361 23.999 70.3902 23.9529 70.4045L23.7589 70.3073C23.4355 70.1535 23.3708 70.1697 22.9505 70.7526L21.3337 73.0759Z" fill="#191819"/>
<path d="M27.0149 76.2004C26.7805 76.6375 26.5541 77.0666 26.449 77.2933C26.3687 77.318 26.2841 77.3257 26.2006 77.316C26.1171 77.3062 26.0365 77.2792 25.964 77.2366C25.964 77.2366 25.9155 76.7671 25.8104 76.2085L25.285 73.4399C25.2236 73.013 25.1317 72.5909 25.0101 72.1771C24.8969 72.2973 24.8065 72.4372 24.7434 72.5899L24.0401 73.9014C23.7981 74.3066 23.6105 74.7422 23.4823 75.1966C23.4888 75.2854 23.5174 75.3711 23.5654 75.4461C23.6134 75.521 23.6793 75.5827 23.7572 75.6256L23.935 75.7552C23.9388 75.8027 23.9286 75.8503 23.9056 75.892C23.8826 75.9338 23.8479 75.9678 23.8057 75.9899L22.9084 75.488C22.6578 75.3504 22.4072 75.229 22.1404 75.0994C22.1366 75.0519 22.1468 75.0043 22.1698 74.9626C22.1928 74.9208 22.2276 74.8868 22.2698 74.8647L22.3991 74.9052C22.4743 74.9477 22.5593 74.9701 22.6457 74.9701C22.7321 74.9701 22.817 74.9477 22.8922 74.9052C23.1931 74.5251 23.4456 74.1091 23.644 73.6666L24.5655 71.9504C24.6915 71.7704 24.7795 71.5666 24.8242 71.3514C24.8238 71.262 24.7997 71.1744 24.7542 71.0976C24.7087 71.0207 24.6436 70.9574 24.5655 70.9142L24.3715 70.8009C24.3659 70.751 24.3783 70.7007 24.4065 70.6591C24.4346 70.6175 24.4767 70.5874 24.5251 70.5742C24.8323 70.7604 25.1718 70.9466 25.4467 71.0923C25.7215 71.238 25.8751 71.3109 26.0287 71.3756C26.0096 72.0991 26.1079 72.8209 26.3197 73.5128L26.538 74.4761C26.6511 74.9942 26.7158 75.3261 26.7886 75.569C26.8675 75.4852 26.933 75.3896 26.9826 75.2856L27.4838 74.3547C27.7257 73.9494 27.9132 73.5139 28.0415 73.0595C28.0358 72.9705 28.0075 72.8844 27.9595 72.8094C27.9114 72.7343 27.845 72.6727 27.7667 72.6304L27.605 72.5252C27.6012 72.4776 27.6114 72.43 27.6344 72.3883C27.6574 72.3465 27.6922 72.3125 27.7344 72.2904C28.09 72.5009 28.3487 72.6466 28.6316 72.7923C28.9146 72.938 29.1247 73.0514 29.3996 73.1809C29.4034 73.2284 29.3932 73.276 29.3702 73.3178C29.3472 73.3595 29.3124 73.3935 29.2703 73.4156L29.1409 73.3671C29.0667 73.326 28.9832 73.3044 28.8984 73.3044C28.8136 73.3044 28.7301 73.326 28.6559 73.3671C28.352 73.726 28.0966 74.1234 27.896 74.549L27.0149 76.2004Z" fill="#191819"/>
<path d="M30.564 75.6823C30.4912 75.8847 30.4912 75.9009 30.6933 75.9738L31.1945 76.1519C31.5744 76.2814 31.6714 76.2652 31.8735 75.9414L31.9705 75.7714C32.0194 75.7547 32.0725 75.7552 32.121 75.7729C32.1695 75.7906 32.2106 75.8243 32.2373 75.8685C32.1403 76.0952 32.0433 76.3543 31.9463 76.6295C31.8493 76.9047 31.7684 77.1719 31.6957 77.439C31.6479 77.458 31.5949 77.4595 31.5461 77.4432C31.4973 77.427 31.4558 77.3939 31.4289 77.35V77.1557C31.4534 77.0905 31.462 77.0204 31.454 76.9513C31.446 76.8821 31.4216 76.8159 31.3828 76.7581C31.3441 76.7003 31.2921 76.6525 31.2312 76.6189C31.1703 76.5853 31.1023 76.5667 31.0328 76.5647L30.5316 76.3866C30.3376 76.3219 30.3296 76.3219 30.2487 76.5404L29.9496 77.3985C29.8417 77.6253 29.797 77.877 29.8203 78.1271C29.8889 78.255 29.9886 78.3635 30.1101 78.4427C30.2315 78.5219 30.3709 78.5693 30.5155 78.5804C30.7763 78.7315 31.0854 78.7754 31.3779 78.7029C31.6703 78.6305 31.9233 78.4473 32.0837 78.1919C32.1089 78.1804 32.1364 78.1746 32.1642 78.1752C32.1919 78.1757 32.2191 78.1824 32.2439 78.1948C32.2687 78.2072 32.2904 78.225 32.3075 78.2469C32.3245 78.2688 32.3364 78.2943 32.3424 78.3214C32.1596 78.6899 31.9256 79.0306 31.6472 79.3333C31.2673 79.1876 30.5801 78.9285 29.982 78.7262L29.0442 78.3943L27.7913 77.9814C27.773 77.9326 27.7727 77.8789 27.7905 77.8299C27.8083 77.7809 27.843 77.7399 27.8883 77.7143L28.244 77.7871C28.5835 77.86 28.6481 77.7871 28.8826 77.1557L29.8284 74.4762C30.0628 73.8204 30.0305 73.7476 29.7314 73.5776L29.5616 73.4804C29.5428 73.4332 29.5433 73.3804 29.5629 73.3335C29.5826 73.2865 29.6198 73.2492 29.6667 73.2295C29.9981 73.3671 30.3538 73.4966 30.7014 73.6181L32.2373 74.1604C32.6981 74.3224 33.1184 74.46 33.2154 74.4843C33.2154 74.6057 33.0457 75.14 32.9163 75.6419C32.8711 75.6691 32.8171 75.6776 32.7657 75.6655C32.7144 75.6534 32.6698 75.6217 32.6415 75.5771C32.6605 75.3505 32.6358 75.1224 32.5687 74.9052C32.5011 74.7872 32.4104 74.6841 32.3021 74.6021C32.1937 74.52 32.07 74.4607 31.9382 74.4276L31.3562 74.2252C31.1137 74.1443 31.1137 74.1524 31.0167 74.4276L30.564 75.6823Z" fill="#191819"/>
<path d="M38.9964 76.7914C38.9471 76.9868 38.8459 77.1652 38.7036 77.3077C38.5613 77.4502 38.3831 77.5515 38.188 77.6009C38.6012 77.9288 38.9448 78.3361 39.1985 78.799C39.3928 78.5658 39.571 78.3197 39.732 78.0623C39.8352 77.9027 39.9193 77.7316 39.9826 77.5523C39.9791 77.524 39.9695 77.4969 39.9544 77.4727C39.9393 77.4485 39.9191 77.428 39.8952 77.4126C39.8713 77.3971 39.8443 77.3871 39.816 77.3833C39.7878 77.3795 39.7592 77.3819 39.732 77.3904H39.5946C39.5798 77.3695 39.5695 77.3457 39.5644 77.3206C39.5592 77.2955 39.5593 77.2696 39.5646 77.2445C39.5699 77.2194 39.5804 77.1957 39.5953 77.1748C39.6102 77.154 39.6292 77.1364 39.6512 77.1233H39.9664C40.5484 77.188 41.0739 77.2204 41.47 77.2528C41.4902 77.2687 41.5065 77.289 41.5177 77.3121C41.5289 77.3353 41.5347 77.3607 41.5347 77.3864C41.5347 77.4121 41.5289 77.4375 41.5177 77.4606C41.5065 77.4838 41.4902 77.504 41.47 77.52H41.2679C41.0778 77.5264 40.8932 77.5853 40.7344 77.69C40.4836 77.8916 40.2607 78.1257 40.0715 78.3861C39.8856 78.5966 39.635 78.9123 39.538 79.0257C39.4839 79.0793 39.44 79.1424 39.4086 79.2119C39.4521 79.286 39.4873 79.3648 39.5137 79.4466C39.5821 79.6825 39.7141 79.895 39.8952 80.0607C40.0763 80.2264 40.2996 80.3388 40.5404 80.3857C40.7846 80.4035 41.0294 80.3589 41.2517 80.2561C41.2833 80.2782 41.3072 80.3095 41.3202 80.3457C41.3333 80.382 41.3348 80.4214 41.3245 80.4585C41.1021 80.6433 40.8426 80.778 40.5637 80.8535C40.2847 80.9289 39.9928 80.9433 39.7077 80.8957C39.5333 80.8982 39.3607 80.86 39.2035 80.7841C39.0464 80.7083 38.909 80.5968 38.8024 80.4585C38.7261 80.3143 38.6586 80.1656 38.6003 80.0133C38.3851 80.2153 38.1301 80.37 37.8517 80.4676C37.5733 80.5652 37.2776 80.6035 36.9835 80.58C36.782 80.5851 36.5816 80.5478 36.3953 80.4704C36.2091 80.393 36.0411 80.2773 35.9024 80.1308C35.7637 79.9842 35.6573 79.8101 35.5901 79.6197C35.5229 79.4294 35.4964 79.227 35.5123 79.0257C35.5786 78.6911 35.7421 78.3835 35.9823 78.1416C36.2224 77.8996 36.5286 77.7341 36.8623 77.6657C36.7294 77.543 36.6256 77.392 36.5584 77.2239C36.4913 77.0559 36.4625 76.8749 36.4743 76.6942C36.495 76.5302 36.5484 76.3719 36.6312 76.2288C36.714 76.0857 36.8246 75.9607 36.9565 75.8611C37.0883 75.7615 37.2388 75.6893 37.3989 75.6489C37.5591 75.6085 37.7257 75.6006 37.8889 75.6257C38.0409 75.6193 38.1926 75.6455 38.3337 75.7026C38.4748 75.7597 38.602 75.8463 38.7069 75.9567C38.8118 76.0672 38.8919 76.1987 38.9418 76.3427C38.9917 76.4867 39.0103 76.6396 38.9964 76.7914ZM37.509 80.0295C37.6896 80.0469 37.8719 80.0224 38.0415 79.9578C38.2111 79.8932 38.3636 79.7903 38.4871 79.6571C38.4673 79.5742 38.4346 79.495 38.3901 79.4223C38.1538 78.9297 37.8115 78.4957 37.3877 78.1514C37.3403 78.0974 37.2826 78.0533 37.218 78.0219C37.0487 78.0973 36.9025 78.2166 36.7945 78.3674C36.6865 78.5182 36.6206 78.6952 36.6036 78.88C36.5868 79.0132 36.5968 79.1484 36.633 79.2777C36.6693 79.4069 36.7311 79.5276 36.8148 79.6325C36.8984 79.7374 37.0023 79.8245 37.1201 79.8885C37.238 79.9525 37.3675 79.9922 37.5009 80.0052L37.509 80.0295ZM37.9051 75.9819C37.8379 75.9797 37.771 75.9911 37.7083 76.0153C37.6456 76.0396 37.5885 76.0762 37.5402 76.123C37.4919 76.1698 37.4536 76.2259 37.4274 76.2879C37.4012 76.3498 37.3877 76.4165 37.3877 76.4838C37.3783 76.6625 37.4196 76.8402 37.5069 76.9964C37.5941 77.1525 37.7238 77.2807 37.8808 77.3661C38.0008 77.2783 38.1004 77.1655 38.1729 77.0356C38.2455 76.9057 38.2892 76.7616 38.3012 76.6133C38.3216 76.5441 38.3272 76.4713 38.3174 76.3997C38.3077 76.3282 38.2829 76.2596 38.2447 76.1984C38.2065 76.1371 38.1557 76.0847 38.0958 76.0446C38.0358 76.0045 37.9681 75.9776 37.897 75.9657L37.9051 75.9819Z" fill="#191819"/>
<path d="M45.9717 80.8231C45.5226 80.8804 45.0662 80.8219 44.646 80.6531C44.422 80.2866 44.2966 79.8683 44.2822 79.4388C44.2953 79.4122 44.3146 79.3891 44.3384 79.3714C44.3623 79.3537 44.39 79.342 44.4193 79.3373C44.4485 79.3325 44.4785 79.3349 44.5067 79.3441C44.5349 79.3533 44.5605 79.3691 44.5813 79.3902C44.6869 79.6896 44.8781 79.9514 45.131 80.1428C45.384 80.3342 45.6876 80.4469 46.004 80.4669C46.1074 80.466 46.2094 80.444 46.304 80.4023C46.3985 80.3606 46.4836 80.3 46.5539 80.2242C46.6243 80.1484 46.6785 80.0591 46.7132 79.9616C46.7479 79.8642 46.7624 79.7607 46.7558 79.6574C46.6875 79.3795 46.5431 79.1262 46.3389 78.926C46.1347 78.7257 45.8788 78.5866 45.5999 78.5241C45.276 78.4387 44.9828 78.2635 44.754 78.0186C44.5251 77.7737 44.37 77.4691 44.3065 77.1398C44.2256 76.2736 44.8319 75.6179 45.9232 75.5207C46.2154 75.4788 46.5121 75.4788 46.8043 75.5207H47.0711C47.2045 75.8657 47.2863 76.2285 47.3136 76.5974C47.2975 76.6207 47.2769 76.6405 47.253 76.6556C47.229 76.6708 47.2023 76.6809 47.1744 76.6854C47.1465 76.69 47.1179 76.6888 47.0904 76.682C47.063 76.6752 47.0371 76.663 47.0145 76.646C46.9383 76.4098 46.7925 76.2022 46.5963 76.0505C46.4 75.8988 46.1626 75.8101 45.9151 75.796C45.813 75.795 45.7118 75.8161 45.6185 75.8578C45.5252 75.8995 45.442 75.9609 45.3745 76.0377C45.307 76.1145 45.2568 76.205 45.2273 76.303C45.1979 76.4009 45.1898 76.5041 45.2038 76.6055C45.2538 76.8005 45.3553 76.9785 45.4975 77.1209C45.6396 77.2633 45.8174 77.3649 46.0121 77.415L46.5376 77.6336C46.8564 77.7309 47.1407 77.9175 47.357 78.1714C47.5733 78.4253 47.7125 78.7359 47.7582 79.0664C47.8148 80.0298 47.1196 80.7179 45.9717 80.8231Z" fill="#191819"/>
<path d="M48.6967 76.5157C48.5269 75.7628 48.4946 75.7061 48.1712 75.7061H47.9287C47.9083 75.6925 47.8908 75.6747 47.8776 75.6539C47.8643 75.6331 47.8555 75.6098 47.8517 75.5855C47.8479 75.5611 47.8492 75.5363 47.8555 75.5124C47.8618 75.4886 47.873 75.4664 47.8883 75.4471C48.3733 75.3014 48.9473 75.1395 49.602 74.9938C50.0746 74.8739 50.5654 74.8437 51.049 74.9047C51.3402 74.9337 51.6144 75.0555 51.8312 75.2523C52.048 75.449 52.1961 75.7102 52.2535 75.9976C52.2866 76.201 52.2786 76.4091 52.2299 76.6094C52.1811 76.8097 52.0926 76.9981 51.9697 77.1635C51.8468 77.3289 51.6919 77.4679 51.5143 77.5721C51.3367 77.6764 51.14 77.7438 50.9359 77.7704L50.6933 77.819C50.6592 77.8016 50.6333 77.7715 50.6212 77.7351C50.6091 77.6988 50.6118 77.6591 50.6287 77.6247C50.8634 77.4985 51.043 77.2895 51.1326 77.0382C51.2223 76.7869 51.2155 76.5113 51.1137 76.2647C51.1075 76.1134 51.0684 75.9653 50.9993 75.8306C50.9302 75.6959 50.8327 75.5779 50.7135 75.4847C50.5943 75.3915 50.4563 75.3254 50.309 75.291C50.1618 75.2565 50.0088 75.2545 49.8607 75.2852C49.5859 75.3499 49.5859 75.4309 49.6506 75.7304L50.3538 78.8957C50.5074 79.5919 50.564 79.6323 50.9116 79.6161H51.1622C51.1848 79.6265 51.2047 79.642 51.2203 79.6613C51.236 79.6806 51.247 79.7033 51.2524 79.7276C51.2579 79.7519 51.2577 79.7771 51.2519 79.8013C51.246 79.8255 51.2347 79.848 51.2188 79.8671L50.0709 80.1423L48.9554 80.4176C48.9286 80.4087 48.9044 80.3933 48.885 80.3727C48.8657 80.3521 48.8518 80.327 48.8446 80.2997C48.8373 80.2723 48.837 80.2437 48.8437 80.2162C48.8503 80.1887 48.8637 80.1633 48.8826 80.1423L49.0847 80.0614C49.408 79.9238 49.4404 79.8671 49.2868 79.1709L48.6967 76.5157Z" fill="#191819"/>
<path d="M55.4051 77.4554C55.6476 78.1354 55.7042 78.1678 56.0598 78.1111H56.2781C56.3188 78.1388 56.3489 78.1795 56.3635 78.2265C56.3782 78.2736 56.3766 78.3242 56.3589 78.3701L55.2676 78.7263L54.1763 79.1311C54.136 79.1049 54.1054 79.0661 54.0893 79.0207C54.0732 78.9754 54.0726 78.9259 54.0874 78.8801L54.2814 78.7425C54.5967 78.5644 54.621 78.4997 54.3784 77.8197L53.4731 75.1563C53.1982 74.4763 53.1335 74.4763 52.7859 74.4763H52.5677C52.5256 74.4498 52.4938 74.4096 52.4777 74.3625C52.4615 74.3154 52.4619 74.2641 52.4788 74.2173L53.5862 73.853L54.6695 73.4482C54.7098 73.4744 54.7404 73.5132 54.7565 73.5586C54.7726 73.604 54.7732 73.6534 54.7584 73.6992L54.5644 73.8044C54.2491 73.9825 54.2248 74.0473 54.4674 74.7273L55.4051 77.4554Z" fill="#191819"/>
<path d="M56.6584 74.0636C56.3108 73.3755 56.2623 73.3108 55.9551 73.416L55.753 73.4808C55.7294 73.4728 55.7077 73.46 55.6894 73.4431C55.671 73.4262 55.6564 73.4057 55.6465 73.3828C55.6366 73.3599 55.6316 73.3352 55.6318 73.3102C55.6321 73.2852 55.6376 73.2606 55.6479 73.2379C56.141 72.9465 56.6665 72.647 57.3132 72.3151C57.759 72.0545 58.2608 71.9046 58.7763 71.8779C59.0093 71.8799 59.2371 71.9468 59.4341 72.0712C59.6312 72.1956 59.7897 72.3726 59.8919 72.5822C60.0032 72.8074 60.0435 73.0612 60.0074 73.3099C59.9713 73.5586 59.8605 73.7904 59.6898 73.9746C59.6413 74.0474 59.6898 74.0879 59.7302 74.1446C60.2981 74.6374 60.9497 75.024 61.6541 75.286C61.8357 75.3427 62.0303 75.3427 62.2119 75.286C62.2491 75.292 62.2825 75.3123 62.3052 75.3425C62.3278 75.3727 62.3378 75.4105 62.3331 75.4479C62.1835 75.5889 62.0114 75.7038 61.8239 75.7879C61.567 75.9422 61.2714 76.0197 60.972 76.0111C60.6726 76.0025 60.382 75.9082 60.1344 75.7394C59.7602 75.4948 59.4037 75.2243 59.0673 74.9298C59.0052 74.8662 58.9231 74.8258 58.8348 74.8155C58.7466 74.8052 58.6574 74.8255 58.5823 74.8732C58.3398 74.9946 58.3398 75.0189 58.4045 75.1484L58.8329 75.9579C59.1482 76.5894 59.2209 76.6136 59.5524 76.5165L59.7544 76.4598C59.7965 76.4836 59.8305 76.5194 59.8521 76.5627C59.8737 76.606 59.8819 76.6547 59.8757 76.7027C59.5039 76.8727 59.1886 77.0265 58.8572 77.1965C58.5257 77.3665 58.2185 77.5284 57.871 77.7227C57.8264 77.7018 57.7901 77.6665 57.7681 77.6224C57.7461 77.5783 57.7396 77.5281 57.7497 77.4798L57.9195 77.3503C58.2024 77.1398 58.2185 77.067 57.9195 76.4436L56.6584 74.0636ZM58.0407 74.4765C58.162 74.7194 58.1943 74.7274 58.5985 74.5251C58.6972 74.4845 58.7859 74.423 58.8585 74.3447C58.9311 74.2664 58.9858 74.1733 59.0188 74.0717C59.0567 73.9261 59.0647 73.7743 59.0425 73.6254C59.0202 73.4766 58.9682 73.3338 58.8895 73.2055C58.8427 73.0729 58.7689 72.9516 58.6727 72.8491C58.5765 72.7467 58.46 72.6655 58.3307 72.6106C58.2014 72.5558 58.0621 72.5285 57.9217 72.5306C57.7813 72.5327 57.6429 72.564 57.5153 72.6227C57.2323 72.7684 57.2485 72.7846 57.4021 73.1246L58.0407 74.4765Z" fill="#191819"/>
<path d="M63.9347 72.9706C64.3388 73.5696 64.4116 73.5858 64.743 73.4401L64.9451 73.351C64.9912 73.3671 65.0305 73.3982 65.0569 73.4393C65.0833 73.4803 65.0952 73.5291 65.0906 73.5777C64.743 73.7963 64.4278 74.0068 64.1287 74.2091C63.8296 74.4115 63.5143 74.6382 63.1829 74.8891C63.1367 74.8749 63.0966 74.8457 63.0688 74.8061C63.041 74.7666 63.0271 74.7189 63.0293 74.6706L63.1748 74.4763C63.4335 74.2253 63.4416 74.1525 63.0374 73.5615L61.4206 71.2301C61.0164 70.631 60.9437 70.6149 60.6123 70.7606L60.4102 70.8496C60.3626 70.835 60.3215 70.8046 60.2935 70.7634C60.2656 70.7221 60.2525 70.6726 60.2566 70.6229C60.6042 70.4044 60.9275 70.1939 61.2347 69.9834C61.5419 69.7729 61.841 69.5544 62.1805 69.3115C62.2266 69.3258 62.2667 69.355 62.2945 69.3946C62.3223 69.4341 62.3362 69.4818 62.3341 69.5301L62.1805 69.6839C61.9218 69.9349 61.9137 70.0077 62.326 70.5987L63.9347 72.9706Z" fill="#191819"/>
<path d="M64.5328 68.2427C64.4116 68.1051 64.3873 68.0727 64.2499 68.1941L63.8942 68.5099C63.4738 68.8822 63.5547 69.2141 63.7568 69.7889C63.7384 69.8399 63.7017 69.8822 63.6539 69.9076C63.6061 69.9331 63.5506 69.9398 63.4981 69.9265C63.3007 69.5389 63.0765 69.1657 62.8271 68.8094C62.8356 68.7719 62.8553 68.738 62.8837 68.7122C62.9102 68.6863 62.9441 68.6693 62.9807 68.6637C63.0939 68.7365 63.1343 68.7446 63.5708 68.356L65.7049 66.4618C66.0849 66.1299 66.1657 66.0408 66.1091 65.8789C66.1207 65.8475 66.1402 65.8196 66.1657 65.7979C66.2046 65.7822 66.2481 65.7822 66.287 65.7979C66.5113 66.1862 66.7829 66.5451 67.0953 66.8665C67.0891 66.9167 67.0668 66.9635 67.0318 66.9999C66.9969 67.0364 66.9511 67.0606 66.9013 67.0689C66.8326 66.9827 66.7471 66.9115 66.6499 66.8596C66.5527 66.8077 66.446 66.7762 66.3362 66.7671C66.2264 66.758 66.116 66.7715 66.0116 66.8067C65.9072 66.8419 65.8111 66.898 65.7292 66.9718L65.3654 67.1903C65.228 67.3118 65.228 67.3441 65.3654 67.4979L67.6046 70.0318C68.0735 70.566 68.1462 70.5741 68.413 70.3879L68.6717 70.2099C68.7173 70.226 68.7571 70.2554 68.7859 70.2943C68.8147 70.3333 68.8312 70.38 68.8333 70.4284C68.4534 70.7441 68.1543 70.9951 67.8956 71.2379C67.6369 71.4808 67.3298 71.7479 66.9337 72.1203C66.8857 72.1114 66.8421 72.0866 66.8099 72.0499C66.7776 72.0132 66.7586 71.9667 66.7558 71.9179L66.9903 71.6589C67.2166 71.3918 67.2085 71.3189 66.7397 70.7846L64.5328 68.2427Z" fill="#191819"/>
<path d="M71.2576 68.0894C70.9719 68.4479 70.5989 68.7267 70.1744 68.899C69.7616 68.7837 69.3856 68.5634 69.0831 68.2594C69.0711 68.2312 69.0663 68.2005 69.069 68.17C69.0718 68.1394 69.082 68.11 69.0988 68.0844C69.1156 68.0588 69.1384 68.0377 69.1653 68.0231C69.1922 68.0084 69.2223 68.0006 69.2529 68.0004C69.5355 68.1469 69.855 68.2066 70.1714 68.172C70.4877 68.1375 70.7868 68.0102 71.0313 67.8061C71.1108 67.7347 71.1744 67.6474 71.218 67.5497C71.2615 67.4521 71.284 67.3464 71.284 67.2394C71.284 67.1325 71.2615 67.0268 71.218 66.9291C71.1744 66.8315 71.1108 66.7441 71.0313 66.6728C70.7884 66.5222 70.5085 66.4425 70.2229 66.4425C69.9373 66.4425 69.6574 66.5222 69.4145 66.6728C69.1208 66.8316 68.7885 66.9044 68.4554 66.8829C68.1223 66.8614 67.802 66.7465 67.531 66.5513C66.8843 65.9766 66.8763 65.078 67.6119 64.2442C67.8072 64.0217 68.0331 63.8282 68.2828 63.6694C68.3593 63.6237 68.4323 63.5723 68.5011 63.5156C68.8347 63.677 69.1425 63.8871 69.4145 64.139C69.4191 64.1666 69.4181 64.195 69.4116 64.2223C69.4051 64.2495 69.3933 64.2753 69.3767 64.2979C69.3601 64.3205 69.3392 64.3396 69.3152 64.354C69.2911 64.3684 69.2644 64.3779 69.2367 64.3818C69.0201 64.2613 68.7722 64.2092 68.5255 64.2323C68.2788 64.2554 68.0449 64.3527 67.8544 64.5113C67.78 64.5782 67.7206 64.6599 67.6798 64.7513C67.6391 64.8426 67.6181 64.9415 67.6181 65.0416C67.6181 65.1416 67.6391 65.2405 67.6798 65.3319C67.7206 65.4233 67.78 65.505 67.8544 65.5718C68.0193 65.6778 68.209 65.7389 68.4046 65.7488C68.6003 65.7587 68.7952 65.7173 68.9699 65.6285L69.5035 65.4261C69.8024 65.2793 70.137 65.221 70.4678 65.2583C70.7987 65.2956 71.112 65.4269 71.3708 65.6366C72.066 66.2356 72.0175 67.1909 71.2576 68.0894Z" fill="#191819"/>
</g>
<defs>
<clipPath id="clip0_3392_33700">
<rect width="85" height="85" fill="white"/>
</clipPath>
</defs>
</svg>
