<?xml version="1.0" encoding="UTF-8"?><svg id="a" xmlns="http://www.w3.org/2000/svg" viewBox="0 0 476.98 553.78"><defs><style>.b{fill:#fff;}</style></defs><path class="b" d="M178.77,208.12c0,4.67-3.79,8.46-8.46,8.46s-8.46-3.79-8.46-8.46,3.79-8.46,8.46-8.46,8.46,3.79,8.46,8.46"/><path class="b" d="M105.07,234.24c1.33-1.41,2.42-2.71,3.66-3.86,7.74-7.25,16.69-7.9,26-4.01,11.3,4.73,17.39,13.86,19.38,25.63,2.21,13.13-1.1,24.8-11.07,33.97-6.66,6.13-14.71,8.56-23.75,6.93-4.18-.75-7.66-2.95-10.71-5.83-.79-.74-1.49-1.57-2.56-2.71-.08,1.13-.18,1.77-.18,2.42,0,29.9-.02,59.8,.05,89.7,0,1.11,.49,2.45,1.21,3.29,19.03,22.22,38.13,44.39,57.21,66.57,19.59,22.77,39.17,45.54,58.76,68.3,5.07,5.89,10.15,11.76,15.41,17.86,3.05-3.52,5.99-6.89,8.92-10.29,18.88-21.93,37.76-43.88,56.64-65.81,22.23-25.83,44.47-51.65,66.68-77.5,.51-.59,.92-1.49,.92-2.25,.04-30.44,.03-60.89,.02-91.34,0-.14-.09-.27-.23-.63-.54,.49-1.04,.92-1.5,1.37-8.11,7.92-18.15,9.65-28.34,4.66-10.55-5.16-16.36-13.99-18.2-25.3-2.11-13.02,1.03-24.67,11-33.78,6.6-6.03,14.5-8.7,23.49-6.97,4.65,.89,8.42,3.52,11.78,6.76,.89,.86,1.82,1.66,2.87,2.61,.34-1.96,.69-3.9,1.02-5.85,.35-2.04,1.37-3.22,3.62-3.08,1.55,.1,3.12-.06,4.67,.04,2.87,.18,3.83,1.25,3.86,4.12,0,.31,0,.62,0,.93,0,50.07-.01,100.13,.02,150.2,0,1.64-.38,2.88-1.49,4.17-29.37,34.06-58.69,68.17-88.02,102.26-18.47,21.47-36.96,42.93-55.44,64.39-.7,.81-1.44,1.6-2.31,2.57-4.07-4.7-8.04-9.26-11.98-13.84-16.9-19.64-33.79-39.29-50.68-58.93-20.85-24.24-41.71-48.48-62.58-72.72-6.45-7.49-12.89-14.98-19.39-22.42-1.39-1.59-2.07-3.18-2.06-5.4,.07-50.15,.05-100.29,.05-150.44,0-4.04,.86-4.96,4.92-4.89,6.01,.1,6.72-1.58,7.77,6.67,.1,.74,.33,1.46,.56,2.43m35.83,25.4c0-5.71-1.34-10.19-4.19-14.17-6.15-8.59-17.31-9.67-25.03-2.47-8.91,8.32-9.07,22.79-.35,31.37,7.15,7.03,17.53,6.73,24.17-.76,3.72-4.2,5.29-9.24,5.4-13.97m195.72-.86c.02,5.98,2,11.22,5.81,15.33,5.57,6,13.9,7.03,20.77,2.59,12.07-7.8,12.51-26.81,.82-35.16-7.08-5.05-15.57-4.31-21.56,1.96-4.07,4.26-5.82,9.45-5.84,15.28"/><path class="b" d="M238.49,22.5C165.31,107.51,92.37,192.24,19.35,277.07c5.73,6.66,11.34,13.2,16.97,19.73,15.69,18.22,31.39,36.43,47.05,54.67,.51,.6,.97,1.48,.98,2.24,.07,6.85,.04,13.7,.04,21.26C56.04,342.07,28.06,309.63,0,277.08,79.49,184.73,158.86,92.51,238.49,0c79.55,92.42,158.99,184.71,238.49,277.07-27.9,32.41-55.66,64.66-83.85,97.41v-4.12c0-5.45-.08-10.9,.06-16.35,.03-1.18,.54-2.59,1.31-3.48,20.8-24.28,41.67-48.52,62.53-72.76,.15-.18,.28-.37,.56-.76C384.64,192.27,311.67,107.5,238.49,22.5"/><path class="b" d="M302.29,233.72c.28-2.02,.47-3.46,.68-4.89,.44-3.08,1.14-3.71,4.2-3.69,1.71,.01,3.43-.02,5.12,.19,1.96,.24,2.96,1.45,2.92,3.52-.06,3.04-.01,6.07-.01,9.11,0,16.66,0,33.32,0,49.98,0,3.24-.77,4.11-4.03,4.4-1.24,.11-2.49,.07-3.73,.08-4.75,0-5.3-.5-5.74-5.25-.05-.54-.1-1.08-.17-1.81-.32,.15-.6,.22-.77,.39-11.04,11.05-25.6,8.96-35.47,1.45-18.27-13.9-17.75-44.26,.98-57.54,10.39-7.36,23.33-7.35,32.25,.1,1.28,1.07,2.32,2.42,3.78,3.97m-19.07,4.08c-2.22,.62-4.6,.91-6.62,1.91-11.81,5.82-14.86,23.26-5.98,33.54,6.74,7.81,17.42,8.18,24.67,.86,7.63-7.7,8.32-20.62,1.48-29.03-3.45-4.24-7.81-6.83-13.55-7.29"/><path class="b" d="M203.77,232.59c3.01-2.15,5.81-4.9,9.16-6.4,11.86-5.3,25.31,.82,29.88,13.11,1.74,4.67,2.49,9.46,2.5,14.39,.02,11.21,.01,22.42,0,33.62,0,4.21-.9,5.08-5.05,5.09-1.56,0-3.11,.03-4.67,0-3.44-.08-4.1-.74-4.11-4.15-.02-9.89,.01-19.77-.02-29.65,0-2.64,.08-5.32-.34-7.91-1.21-7.54-6.71-12.3-13.26-11.78-7.03,.56-12.66,6.61-12.73,13.99-.1,10.66-.02,21.32-.04,31.99,0,1.48-.06,2.96-.22,4.43-.22,1.98-1.35,3.08-3.41,3.09-2.1,0-4.2,.03-6.3,0-3.25-.06-4.11-.92-4.12-4.24-.02-9.34,0-18.68,0-28.02,0-10.04,0-20.08,0-30.12,0-3.6,1.14-4.72,4.75-4.75,1.01-.01,2.02,0,3.04,0,3.28,.02,4.4,1.1,4.65,4.43,.09,1.14,.22,2.27,.29,2.89"/><path class="b" d="M163.29,258.78c0-9.57,0-19.14,0-28.71,0-4.25,.57-4.79,4.9-4.8,1.56,0,3.11-.02,4.67,0,3.34,.05,4.47,1.18,4.47,4.54,.01,15.02,0,30.04,0,45.05,0,4.44,.02,8.87,0,13.31-.02,3.28-.89,4.17-4.14,4.23-1.79,.04-3.58,.01-5.37,0-3.83-.02-4.53-.69-4.53-4.45-.01-9.73,0-19.45,0-29.18"/><path class="b" d="M225.5,215.93c-2.37,.2-5.17-1.13-7.82-2.82-1.57-1-3.06-2.14-4.6-3.18-2.84-1.9-5.37-1.63-7.68,.87-.74,.8-1.35,1.7-2.01,2.57-1.02,1.35-2.2,1.71-3.53,.48-1.76-1.64-3.55-3.26-5.17-5.03-.46-.51-.71-1.64-.48-2.3,1.98-5.78,9.53-11.27,15.61-10.78,3.05,.25,6.06,1.64,8.95,2.85,1.76,.73,3.25,2.12,4.87,3.18,2.63,1.72,4.93,1.51,7.15-.65,.61-.59,1.17-1.25,1.7-1.92,2.24-2.85,2.63-2.9,5.24-.49,.11,.11,.23,.21,.34,.32,5.73,5.86,5.63,5.1,.31,11.59-2.99,3.66-7.2,5.28-12.88,5.3"/><polygon class="b" points="151.39 329.24 151.39 333 145.44 333 145.44 351.03 141.06 351.03 141.06 333 135.11 333 135.11 329.24 151.39 329.24"/><polygon class="b" points="159.4 337.89 166.88 337.89 166.88 329.24 171.26 329.24 171.26 351.03 166.88 351.03 166.88 341.62 159.4 341.62 159.4 351.03 155.02 351.03 155.02 329.24 159.4 329.24 159.4 337.89"/><polygon class="b" points="190.26 329.24 190.26 333 181.18 333 181.18 337.89 189.32 337.89 189.32 341.62 181.18 341.62 181.18 347.31 190.26 347.31 190.26 351.03 176.8 351.03 176.8 329.24 190.26 329.24"/><path class="b" d="M211.23,351.32c-4.85,0-8.26-2.97-8.26-9.63v-3.09c0-6.73,3.41-9.63,8.26-9.63s8.29,2.9,8.29,9.63v3.09c0,6.67-3.41,9.63-8.29,9.63m-3.88-9.63c0,4.17,1.35,5.91,3.88,5.91s3.91-1.74,3.91-5.91v-3.09c0-4.17-1.38-5.91-3.91-5.91s-3.88,1.74-3.88,5.91v3.09Z"/><path class="b" d="M236.14,351.03l-3.88-8.56h-3.5v8.56h-4.38v-21.79h7.73c4.98,0,8.07,2.24,8.07,6.66,0,2.94-1.35,4.86-3.69,5.84l4.48,9.29h-4.82Zm-4.44-12.29c2.6,0,4.1-.57,4.1-2.84s-1.5-2.9-4.1-2.9h-2.94v5.75h2.94Z"/><rect class="b" x="245.25" y="329.24" width="4.38" height="21.79"/><path class="b" d="M271.01,339.7v1.99c0,6.66-3.07,9.63-7.95,9.63s-8.26-2.97-8.26-9.63v-2.78c0-7.04,3.41-9.95,8.26-9.95,4.54,0,7.26,2.59,7.92,7.04h-4.19c-.38-1.99-1.53-3.32-3.72-3.32-2.53,0-3.88,1.74-3.88,5.91v3.09c0,4.17,1.35,5.91,3.88,5.91s3.47-1.55,3.72-4.17h-3.63v-3.73h7.86Z"/><rect class="b" x="276.18" y="329.24" width="4.38" height="21.79"/><polygon class="b" points="302.62 329.24 302.62 351.03 298.96 351.03 290.54 337.55 290.54 351.03 286.38 351.03 286.38 329.24 290.01 329.24 298.46 342.92 298.46 329.24 302.62 329.24"/><path class="b" d="M305.91,351.03l7.51-21.79h4.19l7.51,21.79h-4.66l-1.31-4.14h-7.23l-1.31,4.14h-4.7Zm7.17-7.87h4.88l-2.44-7.67-2.44,7.67Z"/><polygon class="b" points="332.79 347.31 341.87 347.31 341.87 351.03 328.41 351.03 328.41 329.24 332.79 329.24 332.79 347.31"/><path class="b" d="M163.49,380.39v7.68h-4.38v-21.79h7.73c4.98,0,8.07,2.31,8.07,6.98s-3.07,7.14-8.07,7.14h-3.35Zm2.72-3.73c3.03,0,4.32-1.07,4.32-3.41,0-2.08-1.28-3.22-4.32-3.22h-2.72v6.63h2.72Z"/><rect class="b" x="179.14" y="366.27" width="4.38" height="21.79"/><polygon class="b" points="205.58 366.27 205.58 388.06 201.92 388.06 193.5 374.57 193.5 388.06 189.34 388.06 189.34 366.27 192.97 366.27 201.42 379.94 201.42 366.27 205.58 366.27"/><polygon class="b" points="224.58 366.27 224.58 370.03 215.5 370.03 215.5 374.92 223.64 374.92 223.64 378.65 215.5 378.65 215.5 384.33 224.58 384.33 224.58 388.06 211.12 388.06 211.12 366.27 224.58 366.27"/><path class="b" d="M226.61,388.06l7.51-21.79h4.19l7.51,21.79h-4.66l-1.31-4.14h-7.23l-1.32,4.14h-4.69Zm7.17-7.87h4.88l-2.44-7.67-2.44,7.67Z"/><path class="b" d="M253.5,380.39v7.68h-4.38v-21.79h7.73c4.98,0,8.07,2.31,8.07,6.98s-3.07,7.14-8.07,7.14h-3.35Zm2.72-3.73c3.03,0,4.32-1.07,4.32-3.41,0-2.08-1.28-3.22-4.32-3.22h-2.72v6.63h2.72Z"/><path class="b" d="M273.22,380.39v7.68h-4.38v-21.79h7.73c4.98,0,8.07,2.31,8.07,6.98s-3.07,7.14-8.07,7.14h-3.35Zm2.72-3.73c3.03,0,4.32-1.07,4.32-3.41,0-2.08-1.28-3.22-4.32-3.22h-2.72v6.63h2.72Z"/><polygon class="b" points="292.93 384.33 302.01 384.33 302.01 388.06 288.55 388.06 288.55 366.27 292.93 366.27 292.93 384.33"/><polygon class="b" points="319.04 366.27 319.04 370.03 309.96 370.03 309.96 374.92 318.1 374.92 318.1 378.65 309.96 378.65 309.96 384.33 319.04 384.33 319.04 388.06 305.58 388.06 305.58 366.27 319.04 366.27"/></svg>